<svg width="243" height="45" viewBox="0 0 243 45" fill="none" xmlns="http://www.w3.org/2000/svg">
<g clip-path="url(#clip0_161_11)">
<path d="M126.17 0C129.057 0 131.434 1.3125 131.434 4.125C131.434 5.8125 130.245 7.125 128.887 7.125C128.208 7.125 127.698 6.9375 127.189 6.9375C126 6.9375 125.491 7.6875 125.491 9V12.75H127.868C130.245 12.75 131.434 13.5 131.434 15.5625C131.434 17.625 130.245 18.375 127.868 18.375H125.491V40.3125C125.491 43.125 123.962 44.625 121.585 44.625C119.208 44.625 117.679 43.125 117.679 40.3125V18.5625H115.472C113.264 18.5625 112.245 17.625 112.245 15.75C112.245 13.875 113.094 12.9375 115.472 12.9375H117.34V8.4375C117.34 3 121.415 0 126.17 0ZM199.019 12C204.453 12 209.038 14.8125 209.038 22.6875V40.6875C209.038 42.9375 208.189 45 205.132 45C202.075 45 201.226 42.9375 201.226 40.6875V24.9375C201.226 21.75 200.038 19.3125 196.811 19.3125C193.755 19.3125 191.038 21.9375 191.038 26.0625V40.6875C191.038 42.9375 190.189 45 187.132 45C184.075 45 183.226 42.9375 183.226 40.6875V24.9375C183.226 21.75 182.038 19.3125 178.811 19.3125C175.755 19.3125 173.038 21.9375 173.038 26.0625V40.6875C173.038 42.9375 172.189 45 169.132 45C166.075 45 165.226 42.9375 165.226 40.6875V16.5C165.226 13.875 166.585 12.1875 168.962 12.1875C171.34 12.1875 172.698 13.875 172.698 16.5V17.625H172.868C174.906 14.0625 178.472 12.1875 182.547 12.1875C185.264 12.1875 188.66 13.5 190.189 17.625C191.887 14.25 194.774 12 199.019 12ZM98.4906 12C103.925 12 108.509 14.8125 108.509 22.6875V40.6875C108.509 42.9375 107.66 45 104.604 45C101.547 45 100.698 42.9375 100.698 40.6875V24.9375C100.698 21.75 99.5094 19.3125 96.283 19.3125C93.2264 19.3125 90.5094 21.9375 90.5094 26.0625V40.6875C90.5094 42.9375 89.6604 45 86.6038 45C83.5472 45 82.6981 42.9375 82.6981 40.6875V24.9375C82.6981 21.75 81.5094 19.3125 78.283 19.3125C75.2264 19.3125 72.5094 21.9375 72.5094 26.0625V40.6875C72.5094 42.9375 71.6604 45 68.6038 45C65.5472 45 64.6981 42.9375 64.6981 40.6875V16.5C64.6981 13.875 66.0566 12.1875 68.434 12.1875C70.8113 12.1875 72.1698 13.875 72.1698 16.5V17.625H72.3396C74.3774 14.0625 77.9434 12.1875 82.0189 12.1875C84.7358 12.1875 88.1321 13.5 89.6604 17.625C91.3585 14.25 94.2453 12 98.4906 12ZM14.9434 12C21.566 12 26.4906 16.125 26.4906 20.25C26.4906 22.6875 24.7925 24 22.7547 24C19.0189 24 20.3774 18.75 14.6038 18.75C11.5472 18.75 7.81132 21 7.81132 29.0625C7.81132 34.5 10.1887 38.0625 14.6038 38.0625C20.2075 38.0625 19.0189 32.4375 23.0943 32.4375C25.1321 32.4375 26.4906 34.125 26.4906 35.8125C26.4906 39.5625 22.5849 45 14.434 45C4.58491 45 0 38.25 0 29.25C0 19.125 5.26415 12 14.9434 12ZM45.6792 11.4375C49.2453 11.625 52.6415 13.3125 55.3585 16.3125C58.2453 19.5 59.7736 23.8125 59.7736 28.125C59.7736 32.4375 58.2453 36.75 55.3585 39.9375C52.4717 43.125 48.566 44.8125 44.6604 44.8125C40.7547 44.8125 36.8491 43.125 33.9623 39.9375C31.0755 36.75 29.5472 32.4375 29.5472 28.125C29.5472 23.8125 31.0755 19.5 33.9623 16.3125C35.3208 14.8125 37.5283 14.8125 38.8868 16.3125C40.2453 17.8125 40.2453 20.25 38.8868 21.75C37.1887 23.4375 36.5094 25.875 36.5094 28.125C36.5094 30.375 37.3585 32.8125 38.8868 34.5C40.5849 36.1875 42.6226 37.125 44.6604 37.125C46.8679 37.125 48.9057 36.1875 50.434 34.5C52.1321 32.8125 52.8113 30.375 52.8113 28.125C52.8113 25.875 51.9623 23.4375 50.434 21.75C48.9057 20.0625 47.0377 19.3125 45.1698 19.125C43.3019 18.9375 41.7736 17.25 41.9434 15C42.1132 12.9375 43.6415 11.4375 45.6792 11.4375ZM228.226 12.1875C229.415 12.1875 230.604 12.9375 231.283 14.25L242.83 39.375C243.679 41.25 243 43.3125 241.302 44.25C240.792 44.4375 240.283 44.625 239.774 44.625C238.585 44.625 237.396 43.875 236.717 42.5625L228.226 24L222.113 37.3125H229.415C231.283 37.3125 232.811 39 232.811 40.875C232.811 42.9375 231.283 44.4375 229.415 44.4375H216.679C215.491 44.4375 214.472 43.875 213.792 42.75C213.113 41.625 213.113 40.3125 213.623 39.1875L225 14.0625C225.679 12.9375 226.868 12.1875 228.226 12.1875ZM148.585 14.0625L159.962 39.375C160.472 40.5 160.472 41.8125 159.792 42.9375C159.113 44.0625 158.094 44.625 156.906 44.625H133.981C132.792 44.625 131.774 44.0625 131.094 42.9375C130.415 41.8125 130.415 40.5 130.925 39.375L137.377 25.3125C138.226 23.4375 140.264 22.6875 141.792 23.625C143.491 24.5625 144.17 26.8125 143.321 28.5L139.415 37.125H151.472L142.642 17.4375C141.792 15.5625 142.472 13.5 144.17 12.5625C145.698 11.625 147.736 12.375 148.585 14.0625Z" fill="black"/>
</g>
<defs>
<clipPath id="clip0_161_11">
<rect width="243" height="45" fill="white"/>
</clipPath>
</defs>
</svg>
