<svg width="114" height="23" viewBox="0 0 114 23" fill="none" xmlns="http://www.w3.org/2000/svg">
<g clip-path="url(#clip0_280_28)">
<mask id="mask0_280_28" style="mask-type:luminance" maskUnits="userSpaceOnUse" x="0" y="-1" width="114" height="24">
<path d="M0 22.0801H113.333V-0.0532539H0V22.0801Z" fill="white"/>
</mask>
<g mask="url(#mask0_280_28)">
<mask id="mask1_280_28" style="mask-type:luminance" maskUnits="userSpaceOnUse" x="16" y="17" width="98" height="6">
<path d="M18.4069 17.177H112.669C112.925 17.179 113.134 17.2655 113.259 17.4186C113.382 17.579 113.421 17.7952 113.353 18.0332L112.531 21.0113C112.369 21.5905 111.7 22.0801 111.069 22.0801H16.8178C16.5547 22.0801 16.3427 21.9947 16.2167 21.8384C16.0902 21.6806 16.0537 21.4655 16.1198 21.2238L16.9449 18.2467C17.1031 17.6686 17.7714 17.177 18.4069 17.177Z" fill="white"/>
</mask>
<g mask="url(#mask1_280_28)">
<mask id="mask2_280_28" style="mask-type:luminance" maskUnits="userSpaceOnUse" x="16" y="17" width="98" height="6">
<path d="M16.0537 22.0801H113.421V17.177H16.0537V22.0801Z" fill="white"/>
</mask>
<g mask="url(#mask2_280_28)">
<path d="M16.2667 22.0801V21.9467H16.1333V21.6801H16V21.1467H16.1333V20.6134H16.2667V20.2134H16.4V19.6801H16.5333V19.1467H16.6667V18.7467H16.8V18.2134H16.9333V17.9467H17.0667V17.6801H17.2V17.5467H17.3333V17.4134H17.6V17.2801H17.8667V17.1467H113.2V17.2801H113.333V18.6134H113.2V19.1467H113.067V19.6801H112.933V20.0801H112.8V20.6134H112.667V21.0134H112.533V21.4134H112.4V21.5467H112.267V21.6801H112.133V21.8134H112V21.9467H111.733V22.0801" fill="url(#paint0_linear_280_28)"/>
</g>
</g>
</g>
<path fill-rule="evenodd" clip-rule="evenodd" d="M7.46925 9.355C8.57602 9.355 9.4781 10.2326 9.4781 11.3175C9.4781 12.3977 8.57602 13.2727 7.46925 13.2727C6.36196 13.2727 5.45728 12.3977 5.45728 11.3175C5.45728 10.2326 6.36196 9.355 7.46925 9.355Z" fill="black"/>
<path fill-rule="evenodd" clip-rule="evenodd" d="M6.15625 15.8301C3.63281 15.4322 1.37396 13.8592 0.211459 11.679C0.0744792 11.5176 0 11.3176 0 11.1207C0 10.6217 0.405208 10.2238 0.914063 10.2238C1.25521 10.2238 1.57708 10.4238 1.8026 10.8665C2.99115 12.953 5.11197 14.152 7.3776 14.152C9.70208 14.152 11.8792 12.8457 12.9552 10.8801C13.1161 10.6217 13.4208 10.453 13.7364 10.453C14.2391 10.453 14.6421 10.854 14.6421 11.3436C14.6421 11.5426 14.5697 11.7467 14.4401 11.902C13.5573 13.4488 12.1484 14.6337 10.5094 15.3436C10.0484 14.752 9.2776 14.3717 8.47917 14.3717C7.5 14.3717 6.58541 14.9582 6.15625 15.8301Z" fill="black"/>
<path fill-rule="evenodd" clip-rule="evenodd" d="M8.72144 3.22584C9.82456 3.22584 10.7298 4.10597 10.7298 5.1893C10.7298 6.26744 9.82456 7.14771 8.72144 7.14771C7.61153 7.14771 6.71362 6.26744 6.71362 5.1893C6.71362 4.10597 7.61153 3.22584 8.72144 3.22584Z" fill="black"/>
<path fill-rule="evenodd" clip-rule="evenodd" d="M5.79591 9.39767C3.54643 7.93729 2.12038 5.53303 2.1881 2.83156C2.19538 2.34449 2.36466 1.15076 2.53393 0.611161C2.63289 0.376894 2.77871 0.224761 2.94955 0.137294C3.41674 -0.144039 4.01466 0.0226282 4.28393 0.458095C4.41205 0.694495 4.45215 0.978895 4.35581 1.28623C4.1933 1.80543 4.12143 2.34449 4.12143 2.83156C4.12143 6.11436 6.86205 8.79663 10.2298 8.79663C11.7506 8.79663 13.2652 8.20916 14.4198 7.15969C14.6246 6.99449 14.8255 6.93729 15.0282 6.93729C15.5698 6.93729 16.0074 7.35916 16.0074 7.88876C16.0074 8.15596 15.8855 8.41849 15.7162 8.57889C14.2938 9.90288 12.2527 10.6857 10.2386 10.6857C10.1397 10.6857 10.0355 10.682 9.90945 10.7029C9.60633 9.65184 8.60425 8.88725 7.45112 8.88725C6.88289 8.88725 6.30425 9.07996 5.79591 9.39767Z" fill="black"/>
<path fill-rule="evenodd" clip-rule="evenodd" d="M8.47823 14.8419C9.58136 14.8419 10.484 15.7258 10.484 16.8039C10.484 17.882 9.58136 18.7654 8.47823 18.7654C7.37407 18.7654 6.47095 17.882 6.47095 16.8039C6.47095 15.7258 7.37407 14.8419 8.47823 14.8419Z" fill="black"/>
<path fill-rule="evenodd" clip-rule="evenodd" d="M12.9849 14.8144C12.6979 17.8248 10.0614 20.156 6.94009 20.156C6.09009 20.156 5.18905 19.9513 4.29947 19.5935C4.10155 19.5607 4.03124 19.5581 3.96769 19.5581C3.46092 19.5581 3.05103 19.9513 3.05103 20.4498C3.05103 20.8144 3.29061 21.1571 3.70832 21.3331C4.76353 21.7779 5.84583 22.0112 6.94009 22.0112C10.9797 22.0112 14.3973 18.9737 14.8183 15.0466C14.8099 14.981 14.8099 14.9373 14.8099 14.9123C14.8099 14.4164 14.4016 14.0258 13.9036 14.0258C13.4317 14.0258 13.0354 14.3591 12.9849 14.8144Z" fill="black"/>
<path d="M33.3051 15.5125C32.2468 15.5125 31.3696 15.2458 30.677 14.7083C29.9139 14.1286 29.5327 13.3239 29.5327 12.2916C29.5327 11.0749 29.9848 10.1911 30.89 9.64161C31.4822 9.28745 32.4442 9.03224 33.7734 8.87704C34.0286 8.81975 34.4426 8.75724 35.0223 8.68749C35.504 8.63016 35.8583 8.57283 36.0848 8.51656C36.7338 8.33323 37.0592 7.93749 37.0592 7.32909C37.0592 6.32496 36.3035 5.82389 34.7906 5.82389C33.2775 5.82389 32.466 6.40829 32.3515 7.58429H29.9368C30.0207 6.26762 30.5718 5.30043 31.5884 4.67909C32.4218 4.16869 33.5406 3.91656 34.939 3.91656C36.154 3.91656 37.1583 4.15616 37.9499 4.63642C38.8822 5.20309 39.3488 6.02963 39.3488 7.11656V7.45669C39.2775 7.90829 38.9676 8.37602 38.4166 8.8562C37.9207 9.26661 37.4207 9.56245 36.9108 9.74682C36.3442 10.0156 35.3562 10.2208 33.9416 10.3614C32.6139 10.5729 31.9483 11.1822 31.9483 12.1843C31.9483 12.6791 32.2166 13.0531 32.7551 13.3083C33.1639 13.5072 33.6452 13.6062 34.1958 13.6062C34.8458 13.6062 35.4338 13.4499 35.9562 13.139C36.5931 12.7432 36.9108 12.1989 36.9108 11.5072V9.61819C37.9296 9.22079 38.74 8.01402 39.3488 7.49162V12.7781C39.3488 13.0749 39.3832 13.2864 39.4546 13.4135C39.5395 13.5416 39.6958 13.6062 39.9218 13.6062H40.1759C40.2316 13.6062 40.3452 13.5906 40.515 13.5625V15.238C39.992 15.4218 39.4832 15.5125 38.989 15.5125C37.8999 15.5125 37.2712 15.0687 37.1015 14.177C36.1968 15.0687 34.9311 15.5125 33.3051 15.5125Z" fill="black"/>
<path d="M41.1655 4.23413H43.4551V5.76026H43.5182C44.3521 4.54359 45.4765 3.93573 46.8901 3.93573C48.4583 3.93573 49.4838 4.54359 49.9639 5.76026C50.8562 4.54359 51.9999 3.93573 53.3989 3.93573C55.8458 3.93573 57.0677 5.16639 57.0677 7.62479V15.1946H54.6489V8.79354C54.6489 7.74666 54.5515 7.03213 54.3541 6.65079C54.0838 6.11439 53.5202 5.84559 52.6578 5.84559C51.1021 5.84559 50.3254 6.81959 50.3254 8.77062V15.1946H47.9078V8.15599C47.9078 7.36439 47.7661 6.78466 47.4843 6.41639C47.1863 6.03626 46.6849 5.84559 45.9786 5.84559C45.3125 5.84559 44.7567 6.09199 44.3041 6.58679C43.8234 7.12479 43.5833 7.82373 43.5833 8.68733V15.1946H41.1655V4.23413Z" fill="black"/>
<path d="M58.4719 4.23413H60.887V15.1946H58.4719V4.23413ZM58.4719 0.0570606H60.887V2.34559H58.4719V0.0570606Z" fill="black"/>
<path d="M64.2109 11.677C64.3385 12.9478 65.164 13.5833 66.6927 13.5833C68.3593 13.5833 69.1719 13.1041 69.1303 12.1426C69.1016 11.5906 68.7188 11.1822 67.9844 10.9114C67.8297 10.8562 67.0156 10.6583 65.5469 10.3187C64.4443 10.0801 63.638 9.76763 63.1292 9.38535C62.3932 8.84888 62.026 8.078 62.026 7.07494C62.026 5.9864 62.5417 5.16654 63.5745 4.61454C64.3948 4.1624 65.4052 3.93587 66.6068 3.93587C67.8375 3.93587 68.8464 4.19267 69.638 4.69987C70.5432 5.2812 71.0599 6.15094 71.1864 7.30827H68.664C68.4651 6.3332 67.7229 5.84574 66.4375 5.84574C65.1093 5.84574 64.4443 6.21974 64.4443 6.96867C64.4443 7.4916 64.8177 7.88747 65.5677 8.15614C65.7943 8.24054 66.6068 8.43227 68.0052 8.72907C69.1084 8.98274 69.9219 9.29368 70.4427 9.66243C71.1797 10.1989 71.5459 10.9551 71.5459 11.9291C71.5459 13.1312 71.0172 14.052 69.9573 14.6859C69.0667 15.2239 67.9636 15.4932 66.65 15.4932C65.2084 15.4932 64.0625 15.1822 63.2151 14.5593C62.2943 13.8812 61.8219 12.9187 61.7932 11.677H64.2109Z" fill="black"/>
<path d="M76.0754 15.5125C75.0145 15.5125 74.138 15.2458 73.4453 14.7083C72.6822 14.1286 72.301 13.3239 72.301 12.2916C72.301 11.0749 72.7526 10.1911 73.6578 9.64161C74.2526 9.28745 75.2136 9.03224 76.5417 8.87704C76.7958 8.81975 77.2136 8.75724 77.7917 8.68749C78.2724 8.63016 78.6265 8.57283 78.853 8.51656C79.5026 8.33323 79.8281 7.93749 79.8281 7.32909C79.8281 6.32496 79.0718 5.82389 77.5598 5.82389C76.0458 5.82389 75.2317 6.40829 75.1213 7.58429H72.703C72.788 6.26762 73.3385 5.30043 74.3584 4.67909C75.1926 4.16869 76.3098 3.91656 77.7073 3.91656C78.9234 3.91656 79.926 4.15616 80.7188 4.63642C81.651 5.20309 82.1172 6.02963 82.1172 7.11656V7.45669C82.0469 7.90829 81.7369 8.37602 81.1849 8.8562C80.6901 9.26661 80.1874 9.56245 79.6797 9.74682C79.1145 10.0156 78.124 10.2208 76.7109 10.3614C75.3817 10.5729 74.7161 11.1822 74.7161 12.1843C74.7161 12.6791 74.9869 13.0531 75.5234 13.3083C75.9322 13.5072 76.414 13.6062 76.965 13.6062C77.6145 13.6062 78.2021 13.4499 78.7254 13.139C79.362 12.7432 79.6797 12.1989 79.6797 11.5072V9.39057C80.6978 8.99475 81.5093 7.96456 82.1172 7.44269V12.7781C82.1172 13.0749 82.1526 13.2864 82.224 13.4135C82.3088 13.5416 82.4636 13.6062 82.6901 13.6062H82.9453C83.0016 13.6062 83.1145 13.5906 83.2838 13.5625V15.238C82.7604 15.4218 82.25 15.5125 81.7552 15.5125C80.6682 15.5125 80.039 15.0687 79.8697 14.177C78.9636 15.0687 77.7005 15.5125 76.0754 15.5125Z" fill="black"/>
<path d="M83.9338 4.23413H86.2229V5.84559L86.2656 5.88733C87.0562 4.58679 88.1969 3.93573 89.6797 3.93573C90.8948 3.93573 91.8426 4.24826 92.5197 4.86959C93.2125 5.52066 93.5598 6.45293 93.5598 7.66853V15.1946H91.1421V8.30399C91.086 6.66493 90.3713 5.84559 89.0016 5.84559C88.2109 5.84559 87.5666 6.11959 87.0718 6.67159C86.5912 7.22213 86.3505 7.90813 86.3505 8.72893V15.1946H83.9338V4.23413Z" fill="black"/>
<path d="M98.0536 15.5125C96.9937 15.5125 96.1161 15.2458 95.4235 14.7083C94.6604 14.1286 94.2803 13.3239 94.2803 12.2916C94.2803 11.0749 94.7317 10.1911 95.6369 9.64161C96.2307 9.28745 97.1917 9.03224 98.5197 8.87704C98.7751 8.81975 99.1901 8.75724 99.7724 8.68749C100.252 8.63016 100.606 8.57283 100.832 8.51656C101.481 8.33323 101.806 7.93749 101.806 7.32909C101.806 6.32496 101.051 5.82389 99.538 5.82389C98.0251 5.82389 97.2125 6.40829 97.1005 7.58429H94.6812C94.7672 6.26762 95.3193 5.30043 96.336 4.67909C97.1708 4.16869 98.2855 3.91656 99.6864 3.91656C100.903 3.91656 101.905 4.15616 102.697 4.63642C103.63 5.20309 104.098 6.02963 104.098 7.11656V7.45669C104.028 7.90829 103.715 8.37602 103.163 8.8562C102.669 9.26661 102.167 9.56245 101.659 9.74682C101.093 10.0156 100.103 10.2208 98.6891 10.3614C97.3609 10.5729 96.6969 11.1822 96.6969 12.1843C96.6969 12.6791 96.9651 13.0531 97.5027 13.3083C97.9104 13.5072 98.3932 13.6062 98.9443 13.6062C99.5937 13.6062 100.181 13.4499 100.703 13.139C101.34 12.7432 101.659 12.1989 101.659 11.5072V9.48953C102.676 9.0937 103.489 7.95829 104.098 7.43589V12.7781C104.098 13.0749 104.132 13.2864 104.202 13.4135C104.286 13.5416 104.442 13.6062 104.668 13.6062H104.923C104.981 13.6062 105.093 13.5906 105.263 13.5625V15.238C104.739 15.4218 104.231 15.5125 103.736 15.5125C102.647 15.5125 102.02 15.0687 101.849 14.177C100.944 15.0687 99.6787 15.5125 98.0536 15.5125Z" fill="black"/>
<path d="M105.913 4.23413H108.182V6.35399H108.224C108.366 5.74559 108.754 5.19453 109.39 4.69973C110.039 4.19253 110.72 3.93573 111.426 3.93573C111.565 3.93573 111.871 3.95813 112.337 4.00079V6.33306C111.955 6.26119 111.608 6.22586 111.298 6.22586C110.449 6.22586 109.752 6.54359 109.199 7.18053C108.62 7.87479 108.33 8.80707 108.33 9.97999V15.1946H105.913V4.23413Z" fill="black"/>
<path d="M30.0917 2.38732V0.103991H22.6172L22.6161 0.105993H22.5989C21.6584 0.105993 20.9536 0.296659 20.4839 0.676926C19.8584 1.19613 19.562 2.09199 19.562 3.35919V3.53626H19.5631L19.564 15.1946H22.2333V8.49453H29.1323V6.34039H22.2333V2.38732H30.0917Z" fill="black"/>
<path d="M97.2136 21.7363V17.6546H100.206V18.4061H98.2344V19.2639H100.108V20.0155H98.2344V20.9853H100.254V21.7363H97.2136Z" fill="white"/>
<path d="M102.716 18.4061V19.3488H103.188C103.611 19.3488 103.822 19.1895 103.822 18.8749C103.822 18.7082 103.767 18.5895 103.66 18.5155C103.554 18.4426 103.362 18.4061 103.088 18.4061H102.716ZM101.694 17.6546H103.483C103.929 17.6546 104.27 17.7728 104.51 18.0139C104.753 18.2551 104.874 18.54 104.874 18.8697C104.874 19.203 104.757 19.4915 104.52 19.7363C104.286 19.979 103.953 20.0999 103.526 20.0999H102.716V21.7363H101.694V17.6546Z" fill="white"/>
<path d="M106.119 20.5331C106.416 20.7237 106.663 20.856 106.864 20.9357C107.062 21.0123 107.27 21.0487 107.483 21.0487C107.905 21.0487 108.116 20.9237 108.116 20.6716C108.116 20.5034 107.926 20.3435 107.543 20.1909C107.275 20.0841 107.067 20.0019 106.916 19.9409C106.767 19.8784 106.648 19.8227 106.562 19.7742C106.378 19.6664 106.241 19.5258 106.153 19.3539C106.067 19.1821 106.025 18.9878 106.025 18.7675C106.025 18.406 106.168 18.1206 106.456 17.9081C106.745 17.6961 107.125 17.5904 107.595 17.5904C108.046 17.5904 108.507 17.6977 108.981 17.9164V18.7154C108.44 18.4654 108.007 18.3404 107.679 18.3404C107.492 18.3404 107.346 18.3716 107.239 18.4341C107.132 18.4966 107.077 18.5779 107.077 18.6789C107.077 18.8341 107.257 18.9826 107.614 19.1232C108.153 19.3289 108.491 19.4758 108.629 19.5696C108.989 19.8123 109.168 20.1373 109.168 20.5451C109.168 20.894 109.038 21.1894 108.778 21.4341C108.518 21.6779 108.107 21.8003 107.546 21.8003C107.109 21.8003 106.634 21.6701 106.119 21.4112V20.5331Z" fill="white"/>
</g>
<defs>
<linearGradient id="paint0_linear_280_28" x1="15.7369" y1="-7.27379" x2="113.431" y2="-7.27379" gradientUnits="userSpaceOnUse">
<stop/>
<stop offset="0.02"/>
<stop offset="1"/>
</linearGradient>
<clipPath id="clip0_280_28">
<rect width="113.387" height="22.08" fill="white"/>
</clipPath>
</defs>
</svg>
