<svg width="164" height="76" viewBox="0 0 164 76" fill="none" xmlns="http://www.w3.org/2000/svg">
<g clip-path="url(#clip0_124_83)">
<mask id="mask0_124_83" style="mask-type:luminance" maskUnits="userSpaceOnUse" x="0" y="0" width="164" height="76">
<path d="M163.769 0H0V75.3632H163.769V0Z" fill="white"/>
</mask>
<g mask="url(#mask0_124_83)">
<path d="M0.596617 74.5117L1.38979 72.7759C2.22532 73.2712 3.18003 73.5295 4.15132 73.523C5.73767 73.523 6.48592 72.7613 6.48592 71.2985V70.903C6.18182 71.3238 5.77989 71.6643 5.31483 71.8951C4.84977 72.1258 4.33554 72.24 3.81651 72.2276C3.32268 72.2344 2.83277 72.1392 2.37743 71.948C1.92209 71.7567 1.51114 71.4735 1.17029 71.1161C0.829443 70.7587 0.566043 70.3348 0.396576 69.8709C0.227109 69.407 0.155227 68.9131 0.185426 68.4202V68.3898C0.15624 67.8971 0.228817 67.4037 0.39865 66.9402C0.568484 66.4768 0.831926 66.0533 1.17257 65.6961C1.51321 65.3389 1.92377 65.0557 2.37865 64.864C2.83352 64.6724 3.32297 64.5765 3.81651 64.5823C4.32022 64.5712 4.81983 64.6752 5.27734 64.8862C5.73484 65.0972 6.13819 65.4098 6.4567 65.8002V64.7295H8.77557V71.0502C8.8241 71.6279 8.75732 72.2094 8.57911 72.761C8.40089 73.3127 8.11481 73.8233 7.73747 74.2634C7.25145 74.6697 6.6898 74.9758 6.08491 75.164C5.48002 75.3522 4.84385 75.4188 4.2131 75.3599C2.95674 75.3739 1.71576 75.0828 0.596617 74.5117ZM6.48592 68.4202V68.3898C6.48652 68.1322 6.43437 67.8772 6.33271 67.6405C6.23105 67.4038 6.08201 67.1905 5.89477 67.0135C5.70754 66.8366 5.48606 66.6999 5.24399 66.6118C5.00193 66.5237 4.74439 66.4861 4.48723 66.5012C4.23084 66.4863 3.97412 66.5242 3.73298 66.6126C3.49183 66.7009 3.27141 66.8379 3.08538 67.015C2.89936 67.1921 2.7517 67.4055 2.65155 67.642C2.55139 67.8785 2.50089 68.133 2.50317 68.3898V68.4202C2.49973 68.6773 2.54943 68.9324 2.64918 69.1694C2.74893 69.4065 2.89657 69.6203 3.08285 69.7977C3.26912 69.975 3.49001 70.1119 3.73167 70.1998C3.97334 70.2878 4.23057 70.3249 4.48723 70.3087C4.74448 70.3239 5.00212 70.2863 5.24427 70.1981C5.48641 70.1099 5.70793 69.9731 5.89519 69.7961C6.08244 69.619 6.23146 69.4055 6.33305 69.1687C6.43465 68.9319 6.48667 68.6767 6.48592 68.419V68.4202Z" fill="black"/>
<path d="M10.1642 68.8606V68.8303C10.1398 68.283 10.2262 67.7365 10.4183 67.2234C10.6103 66.7103 10.9039 66.2414 11.2816 65.8446C11.6593 65.4478 12.1133 65.1313 12.6163 64.9143C13.1193 64.6972 13.6609 64.5839 14.2087 64.5813C16.9399 64.5813 18.1915 66.6991 18.1915 69.0134C18.1915 69.1966 18.1757 69.4089 18.1611 69.6235H12.4684C12.5415 70.0915 12.7872 70.5153 13.1572 70.8112C13.5271 71.1071 13.9944 71.2537 14.4671 71.2222C14.8377 71.2272 15.2053 71.1555 15.5468 71.0114C15.8882 70.8674 16.1962 70.6541 16.4512 70.3852L17.7791 71.5581C17.379 72.0546 16.8685 72.4507 16.2882 72.715C15.7079 72.9793 15.0739 73.1044 14.4368 73.0804C13.8733 73.1063 13.3106 73.0153 12.784 72.8131C12.2574 72.6109 11.7784 72.3019 11.377 71.9056C10.9757 71.5092 10.6607 71.034 10.452 70.51C10.2433 69.986 10.1453 69.4244 10.1642 68.8606ZM15.9321 68.1753C15.9278 67.7181 15.7451 67.2807 15.423 66.9563C15.1008 66.6318 14.6647 66.446 14.2076 66.4384C13.7477 66.451 13.3096 66.637 12.9812 66.9591C12.6528 67.2813 12.4584 67.7158 12.437 68.1753H15.9321Z" fill="black"/>
<path d="M19.6105 64.7295H21.9293V65.8867C22.19 65.4881 22.545 65.1601 22.9628 64.9315C23.3806 64.703 23.8484 64.5812 24.3246 64.5767C24.7165 64.5589 25.1074 64.6274 25.4699 64.7773C25.8324 64.9271 26.1576 65.1548 26.4225 65.4441C26.6874 65.7334 26.8855 66.0773 27.0029 66.4516C27.1203 66.8259 27.1541 67.2214 27.1019 67.6101V72.8905H24.7864V68.337C24.7864 67.2405 24.2673 66.6765 23.3831 66.6765C22.4989 66.6765 21.9338 67.2383 21.9338 68.337V72.8905H19.615L19.6105 64.7295Z" fill="black"/>
<path d="M29.2084 70.5816V66.7135H28.2321V64.7339H29.2084V62.6465H31.5238V64.7339H33.4461V66.7135H31.5238V70.1963C31.5238 70.7299 31.7486 70.9883 32.271 70.9883C32.6709 70.9899 33.0648 70.8902 33.4158 70.6985V72.5567C32.8618 72.8828 32.2271 73.0464 31.5845 73.0286C30.1689 73.0342 29.2084 72.4725 29.2084 70.5816Z" fill="black"/>
<path d="M34.2449 68.8606V68.8303C34.2204 68.283 34.3067 67.7364 34.4987 67.2232C34.6906 66.7101 34.9843 66.2411 35.362 65.8442C35.7398 65.4474 36.1938 65.131 36.6968 64.9139C37.1999 64.6969 37.7416 64.5838 38.2895 64.5813C41.0218 64.5813 42.2722 66.6991 42.2722 69.0134C42.2722 69.1966 42.2565 69.4089 42.2407 69.6235H36.5526C36.6254 70.0917 36.871 70.5155 37.241 70.8115C37.611 71.1074 38.0785 71.254 38.5512 71.2222C38.9218 71.2272 39.2894 71.1555 39.6309 71.0114C39.9724 70.8674 40.2803 70.6541 40.5353 70.3852L41.8633 71.5581C41.4631 72.0546 40.9526 72.4507 40.3723 72.715C39.792 72.9793 39.1581 73.1044 38.5209 73.0804C37.9571 73.1068 37.394 73.0162 36.8671 72.8142C36.3401 72.6122 35.8606 72.3033 35.4589 71.9068C35.0572 71.5104 34.742 71.0351 34.533 70.5108C34.3241 69.9866 34.226 69.4247 34.2449 68.8606ZM40.0129 68.1753C40.0086 67.7181 39.8259 67.2807 39.5037 66.9563C39.1816 66.6318 38.7455 66.446 38.2883 66.4384C37.8285 66.451 37.3904 66.637 37.0619 66.9591C36.7335 67.2813 36.5391 67.7158 36.5177 68.1753H40.0129Z" fill="black"/>
<path d="M47.5964 68.8606V68.8303C47.5891 68.267 47.6952 67.708 47.9085 67.1867C48.1219 66.6653 48.438 66.1922 48.8381 65.7957C49.2382 65.3992 49.7141 65.0873 50.2373 64.8786C50.7606 64.67 51.3205 64.5688 51.8836 64.5812C52.4965 64.5456 53.1094 64.6506 53.6754 64.8882C54.2415 65.1257 54.7457 65.4896 55.1496 65.9519L53.7295 67.4753C53.5064 67.1957 53.2232 66.9697 52.901 66.8141C52.5788 66.6586 52.2257 66.5774 51.8679 66.5765C51.5909 66.5898 51.3192 66.6582 51.0689 66.7776C50.8186 66.8971 50.5946 67.0652 50.41 67.2722C50.2254 67.4792 50.0838 67.7209 49.9937 67.9832C49.9036 68.2455 49.8666 68.5232 49.885 68.7999V68.8303C49.8629 69.1168 49.9001 69.4049 49.9942 69.6764C50.0883 69.948 50.2374 70.1972 50.4321 70.4087C50.6268 70.6201 50.8629 70.7892 51.1258 70.9054C51.3886 71.0216 51.6726 71.0823 51.96 71.084C52.3157 71.0762 52.6659 70.995 52.9888 70.8456C53.3116 70.6961 53.6002 70.4816 53.8363 70.2155L55.1957 71.5828C54.7913 72.072 54.2793 72.4612 53.6997 72.72C53.1202 72.9788 52.4887 73.1002 51.8544 73.0748C51.2958 73.0862 50.7406 72.9854 50.2217 72.7782C49.7028 72.5711 49.2308 72.2618 48.8337 71.8687C48.4366 71.4757 48.1224 71.0069 47.9099 70.4902C47.6973 69.9735 47.5907 69.4193 47.5964 68.8606Z" fill="black"/>
<path d="M56.356 70.0177V64.7373H58.6771V69.2919C58.6771 70.3884 59.1962 70.9513 60.0815 70.9513C60.9668 70.9513 61.5308 70.3895 61.5308 69.2919V64.7373H63.8452V72.9005H61.5263V71.7433C61.2656 72.1419 60.9107 72.47 60.4929 72.6985C60.075 72.927 59.6073 73.0489 59.131 73.0533C58.7392 73.0708 58.3482 73.0021 57.9858 72.8519C57.6234 72.7018 57.2984 72.4739 57.0337 72.1844C56.769 71.8948 56.5712 71.5507 56.4541 71.1763C56.337 70.8019 56.3035 70.4064 56.356 70.0177Z" fill="black"/>
<path d="M65.6799 61.7781H68.1213V63.8341H65.6799V61.7781ZM65.7406 64.7328H68.0595V72.8961H65.7462L65.7406 64.7328Z" fill="black"/>
<path d="M69.5863 68.8302V68.7998C69.5863 66.0731 71.3715 64.5812 73.3096 64.5812C73.7998 64.5715 74.2855 64.6766 74.7279 64.8881C75.1703 65.0995 75.5572 65.4115 75.8576 65.799V61.7781H78.1765V72.9006H75.8576V71.7276C75.5773 72.1438 75.1974 72.4832 74.7523 72.7147C74.3072 72.9463 73.8112 73.0627 73.3096 73.0534C72.7815 73.0391 72.262 72.9162 71.7836 72.6924C71.3051 72.4685 70.8779 72.1485 70.5286 71.7523C70.1793 71.356 69.9153 70.8921 69.7532 70.3893C69.5911 69.8866 69.5343 69.3558 69.5863 68.8302ZM75.8879 68.8302V68.7998C75.9128 68.5201 75.8806 68.2383 75.7931 67.9714C75.7057 67.7045 75.5649 67.4582 75.3794 67.2474C75.1938 67.0366 74.9673 66.8657 74.7136 66.7452C74.46 66.6246 74.1845 66.5569 73.9039 66.5461C73.6221 66.5553 73.3451 66.6218 73.0899 66.7416C72.8347 66.8614 72.6066 67.032 72.4196 67.2429C72.2325 67.4538 72.0904 67.7007 72.002 67.9684C71.9135 68.2361 71.8806 68.519 71.9052 68.7998V68.8302C71.8821 69.1107 71.916 69.3931 72.005 69.6601C72.094 69.9272 72.2362 70.1735 72.423 70.3841C72.6098 70.5947 72.8373 70.7653 73.0918 70.8856C73.3463 71.0058 73.6226 71.0733 73.9039 71.0839C74.1844 71.073 74.4599 71.0051 74.7134 70.8845C74.967 70.7639 75.1934 70.5931 75.379 70.3823C75.5645 70.1716 75.7053 69.9253 75.7928 69.6585C75.8803 69.3917 75.9126 69.1099 75.8879 68.8302Z" fill="black"/>
<path d="M79.474 70.5503V70.5199C79.474 68.7381 80.8312 67.9157 82.7703 67.9157C83.4511 67.9102 84.1276 68.0243 84.769 68.2527V68.1157C84.769 67.1562 84.1735 66.6226 83.0141 66.6226C82.24 66.6234 81.4733 66.7733 80.7559 67.0641L80.1762 65.298C81.1708 64.842 82.2561 64.618 83.35 64.643C83.8481 64.6055 84.3486 64.667 84.8228 64.824C85.297 64.9809 85.7353 65.2303 86.1127 65.5575C86.4257 65.9111 86.6652 66.3234 86.817 66.7706C86.9688 67.2178 87.03 67.6907 86.9969 68.1618V72.8984H84.7499V72.0153C84.4396 72.3593 84.0571 72.6305 83.6299 72.8096C83.2026 72.9887 82.7411 73.0711 82.2782 73.0512C81.9261 73.0897 81.5698 73.0539 81.2324 72.9459C80.895 72.838 80.5841 72.6604 80.3197 72.4246C80.0553 72.1889 79.8434 71.9002 79.6977 71.5773C79.5521 71.2544 79.4758 70.9045 79.474 70.5503ZM84.7993 70.0166V69.6054C84.3332 69.4006 83.8289 69.2968 83.3197 69.301C82.3276 69.301 81.7176 69.6964 81.7176 70.4245V70.4548C81.7176 71.0794 82.2355 71.4446 82.9837 71.4446C84.0668 71.4491 84.7993 70.8592 84.7993 70.0178V70.0166Z" fill="black"/>
<path d="M88.7046 64.7295H91.0235V65.8867C91.2843 65.4881 91.6395 65.1599 92.0575 64.9314C92.4755 64.7029 92.9435 64.5811 93.4199 64.5767C93.8117 64.5589 94.2026 64.6274 94.5651 64.7772C94.9275 64.9271 95.2527 65.1548 95.5174 65.4441C95.7822 65.7334 95.9803 66.0774 96.0975 66.4517C96.2147 66.826 96.2484 67.2214 96.196 67.6101V72.8905H93.8771V68.337C93.8771 67.2405 93.3592 66.6765 92.4739 66.6765C91.5886 66.6765 91.0246 67.2383 91.0246 68.337V72.8905H88.7046V64.7295Z" fill="black"/>
<path d="M97.5575 68.8302V68.7998C97.5575 66.0731 99.3427 64.5812 101.281 64.5812C101.771 64.5715 102.257 64.6766 102.699 64.8881C103.142 65.0995 103.528 65.4115 103.829 65.799V61.7781H106.148V72.9006H103.829V71.7276C103.549 72.1437 103.168 72.483 102.723 72.7146C102.278 72.9462 101.782 73.0626 101.281 73.0534C100.753 73.0391 100.233 72.9162 99.7548 72.6924C99.2764 72.4685 98.8491 72.1485 98.4998 71.7523C98.1505 71.356 97.8865 70.8921 97.7244 70.3893C97.5623 69.8866 97.5055 69.3558 97.5575 68.8302ZM103.859 68.8302V68.7998C103.884 68.5202 103.852 68.2384 103.764 67.9716C103.677 67.7048 103.536 67.4585 103.351 67.2478C103.166 67.037 102.939 66.8661 102.686 66.7455C102.432 66.6249 102.157 66.5571 101.876 66.5461C101.594 66.5551 101.317 66.6216 101.062 66.7413C100.807 66.861 100.578 67.0316 100.391 67.2425C100.204 67.4535 100.062 67.7004 99.9733 67.9681C99.8848 68.2359 99.8518 68.5189 99.8764 68.7998V68.8302C99.8533 69.1108 99.8873 69.3932 99.9763 69.6604C100.065 69.9275 100.208 70.1739 100.395 70.3845C100.581 70.5951 100.809 70.7657 101.064 70.8859C101.318 71.0061 101.595 71.0734 101.876 71.0839C102.157 71.0728 102.432 71.0049 102.685 70.8842C102.939 70.7635 103.165 70.5927 103.351 70.3819C103.536 70.1712 103.677 69.925 103.764 69.6582C103.852 69.3915 103.884 69.1098 103.859 68.8302Z" fill="black"/>
<path d="M107.537 68.8606V68.8302C107.543 68.2573 107.662 67.6913 107.89 67.1654C108.117 66.6396 108.448 66.1646 108.861 65.7686C109.275 65.3725 109.765 65.0634 110.3 64.8595C110.835 64.6556 111.406 64.5609 111.979 64.5812C112.547 64.5595 113.115 64.6524 113.647 64.8543C114.179 65.0562 114.666 65.363 115.077 65.7566C115.488 66.1501 115.816 66.6223 116.042 67.1451C116.267 67.6679 116.385 68.2306 116.388 68.7999V68.8302C116.383 69.4031 116.264 69.9692 116.036 70.495C115.809 71.0208 115.478 71.4958 115.064 71.8919C114.65 72.2879 114.161 72.597 113.626 72.801C113.09 73.0049 112.52 73.0995 111.947 73.0792C111.378 73.1009 110.811 73.0081 110.279 72.8062C109.746 72.6042 109.26 72.2974 108.849 71.9039C108.437 71.5104 108.109 71.0382 107.884 70.5154C107.659 69.9926 107.541 69.4298 107.537 68.8606ZM114.099 68.8606V68.8302C114.11 68.5399 114.062 68.2502 113.96 67.9785C113.857 67.7067 113.7 67.4584 113.5 67.2482C113.299 67.038 113.058 66.8703 112.792 66.7549C112.525 66.6395 112.238 66.5789 111.947 66.5765C111.659 66.5721 111.372 66.6274 111.106 66.7389C110.84 66.8504 110.6 67.0157 110.401 67.2245C110.201 67.4333 110.048 67.6811 109.949 67.9522C109.85 68.2233 109.808 68.5119 109.826 68.7999V68.8302C109.815 69.1206 109.862 69.4103 109.965 69.6821C110.068 69.9538 110.225 70.2021 110.426 70.4123C110.626 70.6225 110.867 70.7902 111.134 70.9056C111.401 71.0209 111.688 71.0816 111.979 71.0839C112.267 71.0882 112.553 71.0328 112.819 70.9212C113.085 70.8096 113.325 70.6443 113.524 70.4355C113.724 70.2267 113.877 69.979 113.976 69.708C114.075 69.437 114.117 69.1485 114.099 68.8606Z" fill="black"/>
<path d="M122.096 74.5117L122.89 72.7759C123.725 73.2712 124.68 73.5295 125.651 73.523C127.238 73.523 127.986 72.7613 127.986 71.2985V70.903C127.682 71.3238 127.28 71.6643 126.815 71.8951C126.35 72.1258 125.836 72.24 125.317 72.2276C124.823 72.2344 124.333 72.1392 123.878 71.948C123.422 71.7567 123.011 71.4735 122.67 71.1161C122.33 70.7587 122.066 70.3348 121.897 69.8709C121.727 69.407 121.655 68.9131 121.686 68.4202V68.3898C121.656 67.8971 121.729 67.4037 121.899 66.9402C122.069 66.4768 122.332 66.0533 122.673 65.6961C123.013 65.3389 123.424 65.0557 123.879 64.864C124.334 64.6724 124.823 64.5765 125.317 64.5823C125.82 64.5712 126.32 64.6752 126.777 64.8862C127.235 65.0972 127.638 65.4098 127.957 65.8002V64.7295H130.276V71.0502C130.324 71.6279 130.257 72.2094 130.079 72.761C129.901 73.3127 129.615 73.8233 129.238 74.2634C128.751 74.6697 128.19 74.9758 127.584 75.164C126.979 75.3522 126.343 75.4188 125.712 75.3599C124.456 75.3739 123.215 75.0828 122.096 74.5117ZM127.985 68.4202V68.3898C127.986 68.1322 127.933 67.8772 127.832 67.6405C127.73 67.4038 127.581 67.1905 127.394 67.0135C127.207 66.8366 126.985 66.6999 126.743 66.6118C126.501 66.5237 126.243 66.4861 125.986 66.5012C125.73 66.4865 125.473 66.5245 125.232 66.6129C124.991 66.7014 124.771 66.8384 124.585 67.0154C124.399 67.1925 124.252 67.4058 124.152 67.6423C124.051 67.8787 124.001 68.1331 124.003 68.3898V68.4202C124 68.6772 124.05 68.9322 124.149 69.1692C124.249 69.4061 124.396 69.6199 124.583 69.7972C124.769 69.9745 124.989 70.1114 125.231 70.1995C125.473 70.2875 125.73 70.3247 125.986 70.3087C126.243 70.3238 126.501 70.286 126.743 70.1978C126.985 70.1095 127.207 69.9727 127.394 69.7957C127.581 69.6187 127.73 69.4052 127.832 69.1685C127.933 68.9317 127.985 68.6767 127.985 68.419V68.4202Z" fill="black"/>
<path d="M131.663 68.8606V68.8303C131.639 68.283 131.725 67.7365 131.917 67.2234C132.109 66.7103 132.403 66.2414 132.781 65.8446C133.158 65.4478 133.612 65.1313 134.115 64.9143C134.618 64.6972 135.16 64.5839 135.708 64.5813C138.439 64.5813 139.691 66.6991 139.691 69.0134C139.691 69.1966 139.675 69.4089 139.66 69.6235H133.967C134.041 70.0915 134.286 70.5153 134.656 70.8112C135.026 71.1071 135.493 71.2537 135.966 71.2222C136.337 71.2272 136.704 71.1554 137.045 71.0114C137.387 70.8673 137.694 70.6541 137.949 70.3852L139.277 71.5581C138.877 72.0545 138.367 72.4506 137.787 72.7149C137.207 72.9792 136.573 73.1043 135.936 73.0804C135.372 73.1063 134.81 73.0153 134.283 72.8131C133.756 72.6109 133.277 72.3019 132.876 71.9056C132.475 71.5092 132.16 71.034 131.951 70.51C131.742 69.986 131.644 69.4244 131.663 68.8606ZM137.431 68.1753C137.427 67.7181 137.245 67.2805 136.922 66.956C136.6 66.6315 136.164 66.4457 135.707 66.4384C135.247 66.451 134.809 66.637 134.48 66.9591C134.152 67.2813 133.957 67.7158 133.936 68.1753H137.431Z" fill="black"/>
<path d="M141.108 64.7296H143.427V65.8868C143.688 65.4883 144.043 65.1602 144.461 64.9317C144.879 64.7032 145.346 64.5813 145.822 64.5768C146.214 64.5588 146.605 64.6271 146.968 64.7769C147.331 64.9267 147.656 65.1543 147.921 65.4437C148.186 65.733 148.384 66.077 148.502 66.4514C148.619 66.8257 148.653 67.2213 148.601 67.6102V72.8906H146.282V68.3371C146.282 67.2406 145.763 66.6766 144.879 66.6766C143.994 66.6766 143.428 67.2383 143.428 68.3371V72.8906H141.109L141.108 64.7296Z" fill="black"/>
<path d="M150.707 70.5816V66.7135H149.731V64.7339H150.707V62.6465H153.026V64.7339H154.948V66.7135H153.026V70.1963C153.026 70.7299 153.251 70.9883 153.773 70.9883C154.173 70.9903 154.567 70.8906 154.918 70.6985V72.5567C154.364 72.8828 153.729 73.0464 153.087 73.0286C151.669 73.0342 150.707 72.4725 150.707 70.5816Z" fill="black"/>
<path d="M155.748 68.8606V68.8303C155.724 68.283 155.81 67.7365 156.002 67.2234C156.194 66.7103 156.488 66.2414 156.866 65.8446C157.244 65.4478 157.698 65.1313 158.201 64.9143C158.703 64.6972 159.245 64.5839 159.793 64.5813C162.524 64.5813 163.776 66.6991 163.776 69.0134C163.776 69.1966 163.76 69.4089 163.745 69.6235H158.054C158.127 70.0915 158.373 70.5153 158.743 70.8112C159.112 71.1071 159.58 71.2537 160.052 71.2222C160.423 71.2272 160.791 71.1555 161.132 71.0114C161.474 70.8674 161.782 70.6541 162.037 70.3852L163.364 71.5581C162.964 72.055 162.452 72.4513 161.871 72.7154C161.29 72.9795 160.655 73.1042 160.018 73.0793C159.455 73.1047 158.892 73.0134 158.366 72.811C157.84 72.6087 157.361 72.2997 156.961 71.9035C156.56 71.5073 156.245 71.0325 156.036 70.5088C155.828 69.9852 155.73 69.424 155.748 68.8606ZM161.516 68.1753C161.512 67.7181 161.329 67.2807 161.007 66.9563C160.685 66.6318 160.249 66.446 159.792 66.4384C159.332 66.451 158.894 66.637 158.565 66.9591C158.237 67.2813 158.043 67.7158 158.021 68.1753H161.516Z" fill="black"/>
<path d="M154.838 44.0766C154.83 43.6877 154.902 43.3012 155.048 42.9411C155.195 42.5809 155.414 42.2547 155.692 41.9824C156.048 41.6046 156.481 41.3068 156.961 41.1088C157.441 40.9108 157.957 40.8172 158.476 40.8342C159.386 40.8028 160.284 41.0519 161.048 41.5476C161.279 41.6744 161.475 41.8559 161.62 42.0763C161.765 42.2966 161.853 42.549 161.878 42.8115C161.876 43.1392 161.751 43.4542 161.529 43.6946C161.425 43.8211 161.294 43.9228 161.146 43.9922C160.998 44.0616 160.836 44.097 160.673 44.0957C160.275 44.0099 159.889 43.8771 159.523 43.7002C159.15 43.5288 158.747 43.429 158.337 43.4058C157.893 43.4343 157.663 43.592 157.647 43.8788C157.65 43.9729 157.675 44.065 157.72 44.1473C157.766 44.2296 157.83 44.2998 157.909 44.3518C158.108 44.4999 158.326 44.6194 158.558 44.7068L159.166 44.945C159.982 45.2036 160.735 45.6274 161.38 46.1898C161.833 46.657 162.089 47.2805 162.095 47.9312C162.095 48.3954 161.999 48.8546 161.812 49.2794C161.629 49.7035 161.353 50.0809 161.004 50.3838C160.252 50.9916 159.302 51.3008 158.336 51.2522C157.797 51.242 157.261 51.1665 156.74 51.0275C156.186 50.8977 155.662 50.6599 155.199 50.3276C154.997 50.196 154.832 50.0162 154.717 49.8046C154.602 49.593 154.542 49.3561 154.542 49.1154C154.55 48.7929 154.679 48.4853 154.903 48.2537C155.003 48.1291 155.128 48.0279 155.271 47.9574C155.414 47.8869 155.57 47.8488 155.729 47.8458C155.86 47.8468 155.991 47.863 156.118 47.8941C156.243 47.9223 156.365 47.9598 156.484 48.0065C156.597 48.0503 156.717 48.1054 156.862 48.1739C157.007 48.2424 157.134 48.3042 157.25 48.3615C157.608 48.5417 157.998 48.6483 158.398 48.675C158.606 48.6742 158.81 48.6146 158.986 48.5031C159.071 48.4593 159.141 48.3931 159.191 48.3119C159.24 48.2307 159.266 48.1375 159.266 48.0425C159.273 47.9395 159.251 47.8365 159.203 47.7454C159.154 47.6544 159.08 47.5789 158.991 47.5279C158.716 47.3829 158.43 47.2583 158.137 47.1549L157.35 46.8605C156.666 46.6206 156.035 46.2514 155.49 45.773C155.267 45.5515 155.094 45.2854 154.981 44.9923C154.869 44.6992 154.819 44.3856 154.836 44.0721" fill="black"/>
<path d="M141.648 46.0648C141.69 45.3562 141.584 44.6465 141.337 43.9811C141.089 43.3157 140.706 42.7093 140.21 42.2006C139.715 41.6919 139.119 41.2921 138.461 41.0268C137.802 40.7615 137.096 40.6365 136.386 40.6598C135.667 40.6354 134.95 40.7571 134.28 41.0174C133.609 41.2777 132.998 41.6713 132.483 42.1744C131.969 42.6774 131.561 43.2795 131.286 43.9443C131.011 44.6091 130.873 45.3228 130.881 46.0424C130.893 46.7811 131.054 47.5099 131.354 48.1848C131.654 48.8598 132.088 49.4669 132.63 49.9698C133.171 50.4727 133.808 50.8608 134.504 51.1109C135.199 51.361 135.937 51.4678 136.675 51.425C137.855 51.4562 139.023 51.1921 140.075 50.6565C140.221 50.578 140.351 50.4707 140.455 50.3409C140.559 50.2112 140.636 50.0617 140.681 49.9015C140.726 49.7446 140.739 49.5802 140.718 49.4183C140.697 49.2563 140.643 49.1004 140.56 48.9601L140.429 48.7354C140.264 48.4591 140 48.2562 139.69 48.1679C139.381 48.0796 139.049 48.1125 138.764 48.2601C138.215 48.5464 137.604 48.6904 136.986 48.6792C136.401 48.7178 135.819 48.5781 135.315 48.2787C134.811 47.9792 134.41 47.534 134.165 47.0018H140.699C140.823 47.0026 140.946 46.9789 141.061 46.9321C141.175 46.8854 141.28 46.8165 141.368 46.7293C141.456 46.6422 141.526 46.5386 141.574 46.4244C141.622 46.3102 141.647 46.1876 141.648 46.0637M138.492 44.8223H134.181C134.34 44.3431 134.654 43.9306 135.074 43.6504C135.494 43.3701 135.995 43.2381 136.499 43.2752C136.959 43.2586 137.412 43.4044 137.776 43.6872C138.14 43.9699 138.393 44.3717 138.492 44.8223Z" fill="black"/>
<path d="M152.677 43.734C152.404 43.0639 151.99 42.4601 151.464 41.9633C150.646 41.2181 149.569 40.8201 148.462 40.8533C148 40.8579 147.544 40.9605 147.125 41.1541C146.705 41.3478 146.331 41.6282 146.028 41.9768C145.968 41.7346 145.853 41.5096 145.691 41.3196C145.557 41.1643 145.39 41.0414 145.202 40.9601C145.013 40.8788 144.809 40.8411 144.604 40.85C144.397 40.8393 144.189 40.8754 143.997 40.9555C143.805 41.0356 143.633 41.1577 143.494 41.3128C143.222 41.6361 143.079 42.0487 143.093 42.4711V53.5206C143.081 53.9407 143.225 54.3504 143.497 54.6711C143.631 54.8264 143.798 54.9495 143.986 55.031C144.174 55.1125 144.378 55.1504 144.583 55.1418C144.791 55.1525 144.999 55.1163 145.191 55.036C145.383 54.9557 145.555 54.8333 145.693 54.6778C145.966 54.3547 146.109 53.9419 146.094 53.5195V50.3984C146.763 50.9313 147.588 51.2294 148.442 51.2467C149.342 51.2687 150.225 51 150.96 50.4805C151.667 49.9702 152.22 49.2763 152.561 48.4739C152.921 47.6409 153.104 46.7423 153.099 45.8349C153.098 45.1124 152.954 44.3972 152.676 43.7306M149.867 47.2201C149.727 47.5924 149.495 47.9232 149.193 48.1818C148.9 48.432 148.525 48.5667 148.14 48.5604C147.723 48.5711 147.314 48.4448 146.975 48.2009C146.649 47.9602 146.396 47.6356 146.24 47.2617C146.076 46.8786 145.992 46.4661 145.993 46.0494C145.992 45.632 146.076 45.2188 146.24 44.835C146.396 44.462 146.65 44.1382 146.975 43.898C147.314 43.6541 147.723 43.5278 148.14 43.5385C148.525 43.5322 148.899 43.666 149.193 43.9148C149.496 44.1736 149.728 44.5054 149.867 44.8788C150.014 45.2515 150.091 45.6486 150.092 46.0494C150.091 46.4503 150.015 46.8476 149.867 47.2201Z" fill="black"/>
<path d="M95.5645 24.2537H76.5945C77.527 27.4871 80.6974 29.9273 85.1734 29.9273C86.9843 29.9597 88.7744 29.5371 90.3796 28.6982C91.0672 28.3389 91.8665 28.2574 92.6124 28.4704C93.3584 28.6835 93.9941 29.1748 94.3882 29.843L94.7567 30.4722C94.956 30.8144 95.0841 31.1934 95.1331 31.5864C95.1821 31.9794 95.1511 32.3782 95.0419 32.7589C94.9328 33.1396 94.7477 33.4943 94.4979 33.8016C94.2481 34.1089 93.9387 34.3625 93.5883 34.547C90.7185 36.0136 87.5252 36.7327 84.3038 36.6378C75.2261 36.6378 68.5751 30.2935 68.5751 22.0584C68.5751 13.884 74.7295 7.479 83.4972 7.479C92.139 7.479 97.7339 13.702 97.7339 22.1202V22.1517C97.7242 22.7179 97.4905 23.2571 97.0842 23.6514C96.6778 24.0458 96.1318 24.2632 95.5656 24.2559M76.6574 19.1317H89.9617C89.7989 17.6319 89.0728 16.2497 87.9302 15.2645C86.7876 14.2794 85.3136 13.7646 83.8061 13.8244C82.1794 13.7209 80.5686 14.1973 79.2598 15.1689C77.9511 16.1406 77.029 17.5446 76.6574 19.1317Z" fill="black"/>
<path d="M118.299 3.91981C118.299 4.43467 118.198 4.94448 118.001 5.42013C117.804 5.89578 117.515 6.32796 117.151 6.69197C116.787 7.05597 116.354 7.34468 115.879 7.54161C115.403 7.73853 114.893 7.8398 114.378 7.83966C113.339 7.83966 112.342 7.42667 111.607 6.69156C110.871 5.95645 110.458 4.95941 110.458 3.91981C110.458 2.88021 110.871 1.88321 111.607 1.1481C112.342 0.412989 113.339 1.61032e-07 114.378 1.61032e-07C114.893 -0.000147404 115.403 0.101124 115.879 0.298048C116.354 0.494972 116.787 0.783684 117.151 1.14769C117.515 1.51169 117.804 1.94388 118.001 2.41953C118.198 2.89517 118.299 3.40496 118.299 3.91981Z" fill="black"/>
<path d="M112.612 36.2131C111.636 35.7516 110.882 34.9212 110.518 33.9044C110.154 32.8876 110.208 31.7677 110.67 30.7911L120.627 9.70336C121.089 8.7268 121.919 7.97353 122.936 7.60924C123.953 7.24496 125.073 7.29949 126.049 7.76085C126.533 7.98911 126.967 8.31042 127.326 8.70639C127.685 9.10237 127.963 9.56529 128.144 10.0687C128.324 10.5721 128.404 11.1061 128.378 11.6402C128.352 12.1743 128.221 12.6981 127.993 13.1817L118.035 34.2694C117.574 35.246 116.743 35.9993 115.727 36.3638C114.71 36.7282 113.59 36.674 112.613 36.2131" fill="black"/>
<path d="M116.061 36.2131C116.545 35.9847 116.979 35.6633 117.338 35.2672C117.698 34.8711 117.976 34.4081 118.156 33.9047C118.336 33.4012 118.416 32.8671 118.39 32.3328C118.364 31.7986 118.233 31.2748 118.005 30.7911L108.047 9.70336C107.586 8.7268 106.756 7.97353 105.739 7.60924C104.722 7.24496 103.602 7.29949 102.625 7.76085C102.142 7.98911 101.708 8.31042 101.349 8.70639C100.989 9.10237 100.711 9.56529 100.531 10.0687C100.35 10.5721 100.271 11.1061 100.297 11.6402C100.323 12.1743 100.453 12.6981 100.682 13.1817L110.639 34.2694C111.101 35.246 111.931 35.9993 112.948 36.3638C113.965 36.7283 115.084 36.674 116.061 36.2131Z" fill="black"/>
<path d="M158.008 7.47792C157.067 7.47823 156.156 7.80372 155.429 8.39919C154.701 8.99466 154.202 9.82345 154.016 10.745L153.872 10.7113C151.416 8.56067 148.244 7.40721 144.981 7.47792C137.085 7.47792 131.05 13.7615 131.05 22.0573C131.05 30.3531 136.892 36.6368 144.79 36.6368C146.516 36.6733 148.23 36.3308 149.809 35.6334C151.389 34.9359 152.797 33.9005 153.933 32.6001C153.942 33.6737 154.375 34.7002 155.137 35.4562C155.899 36.2122 156.93 36.6365 158.003 36.6368C159.083 36.6368 160.119 36.2077 160.883 35.4439C161.647 34.6801 162.076 33.6443 162.076 32.5641V11.555C162.076 10.4749 161.647 9.43902 160.883 8.67526C160.119 7.91149 159.083 7.48241 158.003 7.48241M146.6 29.3779C145.632 29.3979 144.67 29.2223 143.772 28.8617C142.874 28.5011 142.058 27.9629 141.373 27.2793C140.688 26.5958 140.148 25.7809 139.785 24.8836C139.422 23.9863 139.245 23.025 139.262 22.0573C139.24 21.0884 139.414 20.125 139.775 19.2255C140.136 18.326 140.676 17.5092 141.362 16.8247C142.048 16.1401 142.866 15.6021 143.767 15.2432C144.667 14.8843 145.631 14.712 146.6 14.7367C147.577 14.6805 148.554 14.8312 149.469 15.179C150.383 15.5268 151.214 16.0638 151.907 16.7548C152.6 17.4459 153.139 18.2755 153.488 19.1893C153.838 20.103 153.991 21.0804 153.937 22.0573C153.991 23.0344 153.839 24.0118 153.489 24.9256C153.139 25.8395 152.6 26.6691 151.907 27.3602C151.215 28.0514 150.384 28.5883 149.469 28.9361C148.554 29.2838 147.577 29.4343 146.6 29.3779Z" fill="black"/>
<path d="M62.9678 9.27325C62.8948 9.16091 62.8162 9.0598 62.7341 8.95981C62.5753 8.7682 62.3993 8.59146 62.2083 8.43177C61.9303 8.19888 61.6224 8.00427 61.2927 7.85316C60.7597 7.60602 60.1793 7.47761 59.5918 7.47681C59.4513 7.47681 59.312 7.48469 59.1761 7.49817C59.0401 7.51165 58.9042 7.53299 58.7716 7.55995C57.9912 7.72008 57.2751 8.10609 56.7123 8.66996C56.5281 8.85456 56.3619 9.05617 56.2157 9.27212C55.761 9.94442 55.5187 10.7378 55.5203 11.5494V22.3978C55.5717 23.2964 55.4368 24.196 55.124 25.0401C54.8112 25.8841 54.3273 26.6544 53.7026 27.3025C53.0779 27.9505 52.326 28.4625 51.494 28.8061C50.6621 29.1498 49.7681 29.3177 48.8681 29.2993C45.1382 29.2993 42.589 26.5019 42.589 22.1495V11.5494C42.589 10.4693 42.1599 9.43341 41.3961 8.66965C40.6324 7.90588 39.5965 7.47681 38.5163 7.47681C37.4362 7.47681 36.4003 7.90588 35.6366 8.66965C34.8728 9.43341 34.4437 10.4693 34.4437 11.5494V23.2685C34.4437 31.4137 39.3556 36.6379 47.0043 36.6379C50.1723 36.7473 53.2631 35.6462 55.6483 33.5584C55.8691 34.4379 56.3771 35.2184 57.0919 35.7763C57.8067 36.3342 58.6873 36.6374 59.594 36.6379C60.6741 36.6379 61.71 36.2088 62.4738 35.4451C63.2375 34.6813 63.6666 33.6454 63.6666 32.5653V11.5562C63.6681 10.7446 63.4258 9.95121 62.9712 9.27888" fill="black"/>
<path d="M16.6624 7.4779C13.4943 7.36846 10.4035 8.46956 8.01829 10.5574C7.79755 9.67792 7.2895 8.89737 6.57471 8.33951C5.85993 7.78164 4.97934 7.4784 4.07263 7.4779C2.9925 7.4779 1.95661 7.90698 1.19285 8.67074C0.429083 9.43451 4.98257e-06 10.4704 4.98257e-06 11.5505V32.5596C-0.000847311 33.1041 0.107651 33.6431 0.31907 34.1449C0.37075 34.2662 0.431418 34.3853 0.490963 34.501C0.741024 34.9613 1.07747 35.3691 1.48188 35.702C1.68367 35.8687 1.90113 36.0154 2.13124 36.1402C2.72698 36.464 3.39458 36.6328 4.07263 36.6311C4.75068 36.6328 5.41826 36.464 6.014 36.1402C6.12635 36.0773 6.2387 36.0087 6.35105 35.9368C6.55717 35.797 6.75009 35.6387 6.9274 35.4638L6.95434 35.4391L6.97795 35.4133C7.24414 35.1421 7.47103 34.8351 7.65203 34.501C7.9759 33.9053 8.1451 33.2377 8.14412 32.5596V21.7102C8.09266 20.8116 8.22757 19.912 8.54038 19.068C8.85319 18.224 9.33713 17.4539 9.96182 16.8059C10.5865 16.1579 11.3384 15.646 12.1704 15.3025C13.0024 14.959 13.8964 14.7912 14.7963 14.8097C18.5262 14.8097 21.0754 17.6072 21.0754 21.9596V32.5596C21.0754 33.6397 21.5045 34.6756 22.2682 35.4394C23.032 36.2032 24.0679 36.6322 25.148 36.6322C25.6829 36.6324 26.2125 36.5272 26.7067 36.3225C27.2009 36.1179 27.6499 35.818 28.0281 35.4397C28.4063 35.0615 28.7063 34.6125 28.9109 34.1183C29.1155 33.6241 29.2208 33.0945 29.2206 32.5596V20.8451C29.2206 12.6998 24.3088 7.47564 16.6612 7.47564" fill="black"/>
</g>
</g>
<defs>
<clipPath id="clip0_124_83">
<rect width="163.77" height="75.3632" fill="white"/>
</clipPath>
</defs>
</svg>
