<svg width="114" height="23" viewBox="0 0 114 23" fill="none" xmlns="http://www.w3.org/2000/svg">
<path d="M106.378 14.377C106.485 14.6322 106.62 14.7531 106.852 14.7531C107.128 14.7531 107.36 14.5906 107.459 14.3416C107.576 14.0567 107.36 14.001 107.042 13.8614C106.542 13.6374 106.36 13.3822 106.568 12.8744C106.808 12.2718 107.459 11.8156 108.113 11.8156C108.545 11.8156 108.821 11.9734 108.954 12.3031L108.318 12.765C108.217 12.5619 108.071 12.4562 107.863 12.4562C107.615 12.4562 107.389 12.6124 107.292 12.838C107.175 13.1374 107.459 13.1583 107.847 13.3353C108.266 13.5255 108.378 13.8614 108.183 14.3484C107.938 14.9562 107.292 15.4072 106.607 15.4072C106.131 15.4072 105.839 15.2234 105.706 14.8572L106.378 14.377Z" fill="black"/>
<path d="M18.8964 14.2781C17.8854 15.0255 16.7864 15.3885 15.574 15.3885C13.2171 15.3885 12.2265 13.7651 13.1177 11.5531C14.0052 9.34479 16.1953 7.82494 18.7036 7.82494C19.7224 7.82494 20.5036 8.08027 21.0464 8.61774L21.4172 7.6948C21.7912 6.77294 21.2417 6.3016 19.7276 6.3016C18.5166 6.3016 17.35 6.51667 16.2874 6.94734L17.977 4.3068C19.2401 4.0708 20.3317 3.94374 21.2374 3.94374C24.1598 3.94374 25.0286 5.05827 24.0213 7.5688L20.9021 15.3276H18.5292L18.8964 14.2781ZM17.2426 13.075C18.4958 13.075 19.4484 12.4734 19.8406 11.5125C20.2426 10.5021 19.7494 9.90416 18.5374 9.90416C17.2426 9.90416 16.2786 10.5255 15.8994 11.4667C15.4932 12.4734 15.9906 13.075 17.2426 13.075Z" fill="black"/>
<path d="M28.9974 0.193647L31.8364 0.0187146L25.6782 15.3275H22.9099L28.9974 0.193647Z" fill="black"/>
<path d="M36.7521 15.3275H34.1999L34.8483 13.7182C33.5478 14.8562 32.2817 15.4093 31.0087 15.4093C28.8645 15.4093 28.1931 14.0187 29.2526 11.3796L32.1281 4.2426L34.9619 4.07073L32.3494 10.5708C31.6937 12.1947 31.6806 12.9874 32.8911 12.9874C34.2103 12.9874 35.2859 12.0916 35.9895 10.3327L38.4421 4.2426L41.2811 4.07073L36.7521 15.3275Z" fill="black"/>
<path d="M43.5906 15.3693C42.0754 15.3693 41.0578 14.8979 40.3879 13.8693C39.677 12.7979 39.651 11.3417 40.315 9.68697C40.9713 8.062 42.1635 6.6 43.7526 5.50733C45.2791 4.45933 46.6598 4.02546 48.2598 4.02546C49.6458 4.02546 50.5442 4.47706 51.053 5.42493L53.1567 0.193731L55.9958 0.0187977L49.8359 15.3276H47.3067L47.9489 13.7391C46.5349 14.8771 45.1723 15.3693 43.5906 15.3693ZM44.9281 12.9057C46.7015 12.9057 48.5682 11.5984 49.3302 9.71041C50.0827 7.84586 49.2639 6.49586 47.5083 6.49586C45.7989 6.49586 43.8177 7.92653 43.0999 9.71041C42.3421 11.5984 43.0885 12.9057 44.9281 12.9057Z" fill="black"/>
<path d="M60.839 3.15045H56.777L58.563 0.362448H68.5811L67.4614 3.15045H63.8026L58.8874 15.3275H55.9229L60.839 3.15045Z" fill="black"/>
<path d="M66.6097 5.61391C68.1332 4.56444 69.8363 3.98378 71.4587 3.98378C73.0837 3.98378 74.3311 4.58631 75.0359 5.63737C75.7296 6.70777 75.7739 8.10351 75.1384 9.68688C74.4952 11.277 73.3233 12.6905 71.766 13.765C70.24 14.8135 68.4744 15.39 66.8717 15.39C65.2311 15.39 64.0264 14.8353 63.3285 13.765C62.6463 12.6687 62.5889 11.253 63.2165 9.68688C63.8587 8.10351 65.0212 6.70778 66.6097 5.61391ZM67.8701 12.9056C69.5811 12.9056 71.6045 11.4655 72.3249 9.68688C73.0733 7.82484 72.2452 6.49577 70.4509 6.49577C68.7192 6.49577 66.7895 7.80404 66.0305 9.68688C65.2884 11.5343 66.0993 12.9056 67.8701 12.9056Z" fill="black"/>
<path d="M78.839 15.4343C75.8754 15.4343 75.2348 13.9562 76.5124 10.7833L78.1827 6.61929H76.4354L78.0603 4.24155H79.1411L79.8572 2.46035L83.1384 1.13489L81.8884 4.24155H84.4431L83.4848 6.61929H80.9302L79.2494 10.8015C78.6124 12.3968 78.766 12.9697 80.3926 12.9697C80.6296 12.9697 80.9952 12.9697 81.4822 12.95L79.8015 15.3901C79.4092 15.4093 79.0734 15.4343 78.839 15.4343Z" fill="black"/>
<path d="M88.3131 14.2781C87.3001 15.0255 86.1985 15.3885 84.9875 15.3885C82.6307 15.3885 81.6386 13.7651 82.5293 11.5531C83.4189 9.34479 85.6099 7.82494 88.1203 7.82494C89.1361 7.82494 89.9198 8.08027 90.4589 8.61774L90.8313 7.6948C91.2037 6.77294 90.6594 6.3016 89.1413 6.3016C87.9303 6.3016 86.7637 6.51667 85.7063 6.94734L87.3886 4.3068C88.6569 4.0708 89.7427 3.94374 90.6542 3.94374C93.5761 3.94374 94.4407 5.05827 93.4355 7.5688L90.3261 15.3328L87.9433 15.3276L88.3131 14.2781ZM86.6569 13.075C87.9069 13.075 88.8626 12.4734 89.2558 11.5125C89.6569 10.5021 89.1673 9.90416 87.9537 9.90416C86.6569 9.90416 85.6907 10.5255 85.3105 11.4667C84.9069 12.4734 85.4042 13.075 86.6569 13.075Z" fill="black"/>
<path d="M98.1906 0.193657L101.024 0.0187245L94.8729 15.3312H92.1021L98.1906 0.193657Z" fill="black"/>
<path d="M98.0108 11.9021H99.8572L99.7452 12.5203H98.451L98.1775 13.2H99.1906L98.9354 13.8312H97.9223L97.5863 14.6687H99.0395L98.542 15.3208H96.6384L98.0108 11.9021Z" fill="black"/>
<path d="M100.378 11.902H101.339C102.04 11.902 102.313 12.3614 102.037 13.0515C101.753 13.7457 101.125 14.1989 100.414 14.1989H100.149L99.6983 15.3207L98.9822 15.3666L100.378 11.902ZM100.391 13.5947H100.563C100.928 13.5947 101.204 13.3926 101.344 13.0515C101.485 12.7103 101.36 12.5135 101 12.5135H100.829L100.391 13.5947Z" fill="black"/>
<path d="M102.139 14.377C102.248 14.6322 102.386 14.7531 102.615 14.7531C102.891 14.7531 103.123 14.5906 103.225 14.3416C103.336 14.0567 103.123 14.001 102.808 13.8614C102.305 13.6374 102.126 13.3822 102.334 12.8744C102.571 12.2718 103.225 11.8156 103.876 11.8156C104.308 11.8156 104.584 11.9734 104.717 12.3031L104.081 12.765C103.977 12.5619 103.834 12.4562 103.626 12.4562C103.376 12.4562 103.154 12.6124 103.055 12.838C102.938 13.1374 103.225 13.1583 103.61 13.3353C104.029 13.5255 104.141 13.8614 103.943 14.3484C103.701 14.9562 103.055 15.4072 102.368 15.4072C101.891 15.4072 101.6 15.2234 101.472 14.8572L102.139 14.377Z" fill="black"/>
<path d="M15.838 2.09686C15.2719 0.714464 14.1074 0.026997 12.2943 -0.000603023C9.50578 0.0280636 6.70786 1.989 5.67452 4.56446C4.79275 6.753 5.57922 7.8718 7.74588 8.83014C9.10004 9.43014 10.0334 9.6869 9.5464 10.9135C9.11463 11.9822 8.11827 12.6906 6.92712 12.6906C6.89327 12.6906 6.86775 12.6906 6.83911 12.6853C6.81255 12.6906 6.78598 12.6906 6.75368 12.6906C5.76879 12.6906 5.18546 12.1817 4.72348 11.1541L1.96411 13.1385C2.52035 14.7197 3.75786 15.489 5.74431 15.5187C8.70682 15.489 11.4526 13.5489 12.5037 10.9301C13.3391 8.85201 12.8646 7.39366 11.0386 6.5582C9.38078 5.78593 8.13755 5.701 8.65994 4.39526C9.04952 3.42646 10.0318 2.7702 11.1157 2.7702H11.1803H11.2865C12.162 2.7702 12.7683 3.18686 13.2131 4.0046L15.838 2.09686Z" fill="black"/>
<path fill-rule="evenodd" clip-rule="evenodd" d="M0 17.8693H101.839L109.133 19.5724H7.75104L0 17.8693Z" fill="black"/>
<path fill-rule="evenodd" clip-rule="evenodd" d="M4.25562 20.4317L106.094 20.4343L113.386 22.1333H12.0051L4.25562 20.4317Z" fill="black"/>
<path d="M105.777 14.075H104.62V13.6557H105.777V14.075Z" fill="black"/>
</svg>
