<svg width="201" height="59" viewBox="0 0 201 59" fill="none" xmlns="http://www.w3.org/2000/svg">
<g clip-path="url(#clip0_162_13)">
<path d="M60.9425 52.4576V54.8366H47.4507V26.5261H60.3V28.9052H49.3781V39.016H58.9233V41.1572H49.3781V52.5765L60.9425 52.4576Z" fill="black"/>
<path d="M72.048 43.4173H67V54.8366H65.0726V26.5261H72.048C77.0041 26.5261 79.1151 29.0241 79.1151 34.9717C79.1151 40.9193 77.0959 43.4173 72.048 43.4173ZM72.048 28.7862H67V41.2761H72.048C75.4439 41.2761 77.1877 39.7298 77.1877 34.9717C77.1877 30.2136 75.5356 28.7862 72.048 28.7862Z" fill="black"/>
<path d="M87.926 55.4314C85.7227 55.4578 83.5587 54.6741 81.6849 53.1714L82.0521 50.7923C83.7977 52.2601 85.846 53.0067 87.926 52.9335C91.4137 52.9335 93.1575 50.7923 93.1575 47.1048C93.1575 39.4919 81.9603 42.8226 81.9603 33.5444C81.9603 29.2621 84.0712 26.0504 88.7521 26.0504C90.683 26.0296 92.5941 26.5574 94.3507 27.5968L93.9836 29.8569C92.3654 28.9238 90.615 28.4377 88.8438 28.4294C85.2644 28.4294 83.7959 30.8085 83.7959 33.5444C83.7959 40.8004 95.0849 37.3508 95.0849 47.1048C94.9932 52.2198 92.6069 55.4314 87.926 55.4314Z" fill="black"/>
<path d="M101.877 53.1715L102.427 48.6513C103.326 49.309 104.281 49.828 105.273 50.1977C106.256 50.5794 107.275 50.7796 108.301 50.7925C109.335 50.9057 110.368 50.5709 111.238 49.8408C111.552 49.4904 111.799 49.0498 111.958 48.5542C112.117 48.0586 112.185 47.5216 112.156 46.986C112.178 46.5785 112.123 46.1702 111.995 45.7969C111.867 45.4237 111.67 45.0968 111.422 44.8449C110.837 44.2482 110.188 43.7672 109.495 43.4175L107.016 42.2279C106.145 41.8464 105.312 41.327 104.538 40.6816C103.806 40.0613 103.181 39.2513 102.703 38.3025C102.169 37.158 101.913 35.8317 101.968 34.4961C101.97 33.3983 102.125 32.31 102.427 31.2844C102.724 30.2855 103.195 29.3896 103.804 28.6675C104.467 27.8761 105.248 27.2689 106.099 26.8832C107.166 26.4444 108.283 26.2433 109.403 26.2884C110.449 26.2738 111.495 26.3933 112.523 26.6453C113.47 26.8603 114.395 27.2197 115.277 27.7158L114.726 32.1171L112.156 31.1654L109.586 30.8086L107.751 31.0465C107.32 31.1785 106.914 31.4212 106.558 31.7602C106.271 32.0334 106.049 32.4039 105.915 32.8308C105.798 33.2094 105.736 33.6126 105.732 34.0203C105.717 34.4095 105.776 34.7975 105.904 35.1501C106.032 35.5027 106.225 35.8091 106.466 36.0425C107.06 36.5881 107.709 37.0281 108.393 37.3509L110.871 38.5404C111.746 38.9136 112.579 39.4335 113.349 40.0868C114.08 40.7097 114.704 41.5192 115.185 42.4658C115.714 43.6131 115.969 44.9374 115.919 46.2723C115.965 47.4691 115.808 48.6643 115.459 49.774C115.11 50.8837 114.578 51.8809 113.9 52.6957C112.303 54.3923 110.27 55.2423 108.21 55.0747C107.032 55.0746 105.859 54.8746 104.722 54.48C103.738 54.1881 102.783 53.749 101.877 53.1715Z" fill="black"/>
<path d="M163.003 26.7642H166.582V32.3549H170.621V35.9234H166.582V48.4134C166.545 48.8009 166.575 49.1943 166.67 49.5648C166.766 49.9353 166.924 50.2735 167.133 50.5545C167.611 51.0012 168.197 51.2121 168.785 51.1492H169.519L170.162 50.9113L170.437 54.3609L169.244 54.7178H167.684C167.03 54.7803 166.374 54.6644 165.757 54.3775C165.141 54.0906 164.578 53.6392 164.104 53.0525C163.261 51.7158 162.835 50.018 162.911 48.2944L163.003 26.7642Z" fill="black"/>
<path d="M135.744 54.5987V32.3548L138.314 32.1169L138.864 34.258C139.5 33.4802 140.249 32.8738 141.067 32.4737C141.919 32.0691 142.821 31.8676 143.729 31.879C144.523 31.8325 145.316 31.9986 146.058 32.367C146.8 32.7354 147.476 33.2982 148.042 34.0201C148.605 34.8662 149.033 35.8485 149.301 36.9103C149.569 37.972 149.671 39.0921 149.603 40.2056V54.5987H145.932V40.2056C145.98 39.6429 145.931 39.0733 145.788 38.5383C145.645 38.0033 145.412 37.5163 145.105 37.1128C144.396 36.4168 143.515 36.0787 142.627 36.1612C141.96 36.1826 141.303 36.3852 140.7 36.756C140.11 37.0862 139.602 37.6214 139.232 38.3024V54.5987H135.744Z" fill="black"/>
<path d="M154.008 27.002C154.008 25.4953 154.742 24.7419 156.211 24.7419C157.679 24.7419 158.414 25.4953 158.414 27.002C158.414 28.5087 157.679 29.2621 156.211 29.2621C155.636 29.3243 155.06 29.1584 154.559 28.7863C154.36 28.5714 154.206 28.2958 154.11 27.9844C154.013 27.6729 153.979 27.3353 154.008 27.002ZM154.284 54.5988V32.3548L157.955 32.1169V54.5988H154.284Z" fill="black"/>
<path d="M189.252 38.5402C189.226 37.6472 189.352 36.7575 189.622 35.935C189.891 35.1125 190.298 34.3773 190.812 33.7822C192.176 32.4383 193.878 31.8021 195.585 31.9979C197.229 31.9965 198.855 32.4422 200.358 33.3064L200.082 37.2318C199.345 36.8409 198.575 36.5615 197.788 36.3991L195.585 36.1612C194.882 36.1043 194.181 36.3107 193.566 36.756C193.333 36.9437 193.143 37.2074 193.014 37.5206C192.885 37.8338 192.822 38.1855 192.831 38.5402C192.827 38.8479 192.883 39.152 192.996 39.423C193.108 39.6939 193.273 39.9225 193.474 40.0866L195.034 41.0382L197.053 41.8709C197.764 42.1519 198.442 42.5518 199.073 43.0604C199.695 43.5366 200.228 44.1868 200.633 44.9636C201.075 45.8913 201.298 46.9663 201.275 48.0564C201.282 49.0673 201.158 50.0725 200.908 51.0302C200.691 51.8899 200.312 52.6665 199.807 53.2902C199.249 53.9363 198.592 54.4227 197.879 54.7177C196.956 55.0705 195.996 55.2311 195.034 55.1935C194.048 55.219 193.063 55.0992 192.097 54.8366C191.222 54.5779 190.385 54.136 189.619 53.5281L190.078 49.6027C190.811 50.2103 191.618 50.6527 192.464 50.9112C193.302 51.2075 194.166 51.3673 195.034 51.387C195.852 51.4778 196.667 51.182 197.329 50.5544C197.559 50.3085 197.744 49.9996 197.871 49.65C197.998 49.3003 198.063 48.9186 198.063 48.5322C198.067 48.2082 198.01 47.8878 197.898 47.598C197.787 47.3082 197.623 47.0574 197.421 46.8669C196.944 46.4117 196.418 46.0509 195.86 45.7963L193.841 44.9636C193.133 44.6744 192.455 44.2749 191.822 43.7741C191.197 43.3012 190.664 42.6504 190.262 41.8709C189.653 40.934 189.298 39.7638 189.252 38.5402Z" fill="black"/>
<path d="M131.797 36.6372C131.617 35.6285 131.234 34.7002 130.685 33.9476C130.137 33.195 129.443 32.6452 128.677 32.3549C127.692 31.9984 126.67 31.838 125.648 31.8791C123.665 31.8273 121.695 32.3135 119.866 33.3065L120.233 37.2319L122.527 36.2803L125.006 35.9235C125.969 35.7922 126.939 36.0856 127.759 36.7561C128.058 37.1415 128.287 37.6082 128.43 38.1225C128.573 38.6368 128.626 39.1859 128.585 39.7299V47.9376C128.586 48.3606 128.49 48.7746 128.31 49.1271C128.114 49.5018 127.864 49.8247 127.575 50.0787L126.474 50.7924L125.189 51.0303C124.434 51.0651 123.691 50.772 123.078 50.1977C122.782 49.8597 122.553 49.4351 122.41 48.9593C122.266 48.4835 122.212 47.9701 122.252 47.4618C122.227 46.9728 122.288 46.4828 122.431 46.0292C122.574 45.5756 122.796 45.1704 123.078 44.8448C123.835 44.1919 124.743 43.8977 125.648 44.0122L127.208 44.2501H127.392V41.1573H126.933L125.006 40.9194C123.316 40.7641 121.643 41.4441 120.325 42.8227C119.801 43.4592 119.39 44.2357 119.121 45.0983C118.851 45.9609 118.73 46.8891 118.764 47.8186C118.666 48.7708 118.733 49.7395 118.962 50.6535C119.19 51.5674 119.574 52.4033 120.085 53.0995C120.596 53.7958 121.22 54.3347 121.913 54.6765C122.606 55.0183 123.349 55.1544 124.088 55.0747C125.065 55.1086 126.036 54.865 126.933 54.361C127.721 53.905 128.413 53.2117 128.952 52.3388H129.044L129.411 54.7178H132.164V40.5626C132.18 39.2386 132.056 37.9181 131.797 36.6372Z" fill="black"/>
<path d="M185.856 36.6372C185.676 35.6285 185.292 34.7002 184.744 33.9476C184.195 33.195 183.502 32.6452 182.736 32.3549C181.75 31.9984 180.729 31.838 179.707 31.8791C177.724 31.8273 175.754 32.3135 173.925 33.3065L174.292 37.2319L176.586 36.2803L179.064 35.9235C180.028 35.7922 180.998 36.0856 181.818 36.7561C182.117 37.1415 182.346 37.6082 182.489 38.1225C182.632 38.6368 182.685 39.1859 182.644 39.7299V47.9376C182.645 48.3606 182.549 48.7746 182.368 49.1271C182.172 49.5018 181.923 49.8247 181.634 50.0787L180.533 50.7924L179.248 51.0303C178.492 51.0651 177.749 50.772 177.137 50.1977C176.841 49.8597 176.612 49.4351 176.468 48.9593C176.325 48.4835 176.271 47.9701 176.311 47.4618C176.285 46.9728 176.347 46.4828 176.49 46.0292C176.633 45.5756 176.854 45.1704 177.137 44.8448C177.894 44.1919 178.802 43.8977 179.707 44.0122L181.267 44.2501H181.451V41.1573H180.992L179.064 40.9194C177.375 40.7641 175.702 41.4441 174.384 42.8227C173.86 43.4592 173.449 44.2357 173.18 45.0983C172.91 45.9609 172.789 46.8891 172.823 47.8186C172.725 48.7708 172.792 49.7395 173.021 50.6535C173.249 51.5674 173.633 52.4033 174.144 53.0995C174.654 53.7958 175.279 54.3347 175.972 54.6765C176.665 55.0183 177.408 55.1544 178.147 55.0747C179.124 55.1086 180.095 54.865 180.992 54.361C181.781 53.909 182.474 53.215 183.011 52.3388H183.103L183.47 54.7178H186.223V40.5626C186.238 39.2386 186.115 37.9181 185.856 36.6372Z" fill="black"/>
<path d="M29.4616 7.96976C29.0945 2.73589 26.8918 0 23.9548 0C22.32 0.0817115 20.7334 0.739731 19.3657 1.90323C16.0457 4.6319 13.3764 8.50322 11.6562 13.0847C10.7384 15.3448 10.1877 17.0101 9.26986 19.627L10.0041 21.0544C11.1055 23.0766 15.4192 32.8306 15.4192 32.8306L8.35205 35.4476L22.1192 30.2137C22.7046 30.0469 23.2439 29.6768 23.6794 29.1431C27.5342 22.9577 30.1041 16.0585 29.4616 7.96976Z" fill="url(#paint0_linear_162_13)"/>
<path d="M9.91235 20.9354L9.1781 19.627L8.99454 20.1028C8.53564 21.2923 4.31372 36.756 4.31372 36.756H5.13975L8.2603 35.5665L15.2356 32.8306C15.2356 32.8306 11.0137 22.9576 9.91235 20.9354Z" fill="black"/>
<path d="M5.59869 36.6372L8.35212 35.5667L5.23157 36.7562L5.59869 36.6372Z" fill="black"/>
<path d="M8.99452 20.1028L9.17808 19.627C7.90704 16.9747 6.46392 14.4677 4.86438 12.133C3.12055 9.9919 0.826026 10.1109 0.183561 14.75C0.0943528 15.1787 0.0329518 15.6164 -1.00314e-06 16.0584C-0.0917818 23.0766 0.917807 28.5484 3.02877 35.4475C3.21052 35.9715 3.5394 36.3861 3.94857 36.6071C4.35773 36.828 4.81646 36.8388 5.23151 36.6371H4.40548C4.40548 36.6371 8.6274 21.2923 8.99452 20.1028Z" fill="black"/>
<path d="M37.9055 44.3689C35.1521 37.4697 30.4713 33.6633 24.9644 31.1653H24.4137L23.2206 31.4032L15.6028 34.377C15.6028 34.377 15.8781 44.3689 15.8781 45.9153C15.8781 47.4617 15.8781 46.9858 15.8781 47.8185C17.8055 49.4838 19.9165 51.0302 21.5685 52.2197C24.7774 54.7404 28.4629 56.0581 32.2151 56.0262C37.9055 55.7883 40.4754 50.9112 37.9055 44.3689Z" fill="url(#paint1_linear_162_13)"/>
<path d="M15.8781 45.9153C15.8781 44.3689 15.6028 34.377 15.6028 34.377L12.1151 35.6854L6.14933 37.8265L4.95618 38.6592L15.4192 47.5806L15.7863 47.8185C15.8781 46.9858 15.8781 46.2721 15.8781 45.9153Z" fill="black"/>
<path d="M5.048 38.5404L6.24115 37.7078C8.16855 36.994 5.87403 37.8267 5.87403 37.8267C5.87403 37.8267 4.31375 39.0162 4.49731 40.4436C5.87403 45.9154 7.25074 51.3872 10.2795 56.1453L10.922 56.9779C13.4001 59.8328 15.0521 59.7138 15.6028 55.5505C15.839 52.9454 15.931 50.3218 15.8781 47.6997L15.511 47.4618L5.048 38.5404Z" fill="black"/>
</g>
<defs>
<linearGradient id="paint0_linear_162_13" x1="21.5593" y1="30.5825" x2="9.97613" y2="6.00748" gradientUnits="userSpaceOnUse">
<stop/>
<stop offset="0.39"/>
<stop offset="0.6"/>
<stop offset="0.76"/>
<stop offset="0.9"/>
<stop offset="0.94"/>
</linearGradient>
<linearGradient id="paint1_linear_162_13" x1="22.6699" y1="30.9512" x2="34.3673" y2="55.7686" gradientUnits="userSpaceOnUse">
<stop offset="0.03"/>
<stop offset="0.22" stop-color="#18181B"/>
<stop offset="0.43"/>
<stop offset="0.66"/>
<stop offset="0.9"/>
<stop offset="1"/>
</linearGradient>
<clipPath id="clip0_162_13">
<rect width="201" height="59" fill="white"/>
</clipPath>
</defs>
</svg>
