<svg width="113" height="57" viewBox="0 0 113 57" fill="none" xmlns="http://www.w3.org/2000/svg">
<path d="M36.3146 26.1418C35.5626 26.7272 35.158 27.6835 35.158 28.9111C35.158 28.9444 35.2048 32.2324 38.8454 32.2324C38.934 32.2324 39.0204 32.2324 39.1137 32.2272C43.0365 32.0674 45.0252 30.2622 45.0252 26.8486V25.5294C43.3121 25.1882 41.8022 25.01 40.534 25.01C38.6616 25.01 37.2829 25.3783 36.3146 26.1418Z" fill="black"/>
<path d="M87.1344 26.1418C86.3817 26.7272 85.9844 27.6835 85.9844 28.9111C85.9844 28.9444 86.0276 32.2324 89.6656 32.2324C89.7541 32.2324 89.8437 32.2324 89.9349 32.2272C93.8568 32.0674 95.8453 30.2622 95.8453 26.8486V25.5294C94.1328 25.1882 92.6197 25.01 91.3541 25.01C89.4817 25.01 88.1041 25.3783 87.1344 26.1418Z" fill="black"/>
<path d="M96.8021 7.20896H81.2369C81.2369 7.20896 77.4375 7.17043 77.4375 13.1751V13.4278V35.7975H77.0964C75.9401 35.7975 75.0417 35.4756 74.4312 34.8444C73.612 33.998 73.612 32.9163 73.612 32.8715V13.4278V13.1751C73.612 7.17043 69.8151 7.20896 69.8151 7.20896H3.59896C1.62031 7.20896 0 8.86576 0 10.8887V27.8887C0 36.6256 6.92188 43.709 15.4584 43.709H108.659C110.64 43.709 112.259 42.0527 112.259 40.0294V23.0288C112.259 14.2944 105.336 7.20896 96.8021 7.20896ZM20.2891 35.8964C17.7193 35.8964 15.2161 34.8106 13.2422 32.8314L13.0333 32.6215L13.1979 32.3798C13.2448 32.3158 14.2907 30.7934 15.7396 30.7934C16.1188 30.7934 16.4896 30.8991 16.8385 31.1038L17.0224 31.196C18.0937 31.8871 19.1839 32.2272 20.2891 32.2272C20.8973 32.2272 23.9312 32.109 23.9312 29.7772C23.9312 27.972 23.4088 27.7663 20.2604 26.8522L19.7552 26.709C17.4937 26.0674 13.7036 24.984 13.7036 20.297C13.7036 16.2767 17.2604 14.1756 20.7708 14.1756C23.2281 14.1756 25.4713 15.0912 27.2489 16.8246L27.4787 17.0496L27.2855 17.2996C26.3855 18.4699 25.3412 18.7174 24.6265 18.7174C24.1265 18.7174 23.7011 18.5975 23.4303 18.4996L23.4251 18.5059L23.1224 18.3663C22.3803 18.0215 21.586 17.8418 20.7708 17.8418C19.6251 17.8418 17.4511 18.3574 17.4511 20.297C17.4511 22.0382 18.4052 22.3887 20.564 23.0064L21.2349 23.2027C24.2568 24.071 27.6797 25.0554 27.6797 29.7772C27.6797 34.0059 23.9683 35.8964 20.2891 35.8964ZM48.7729 35.4475H48.4287C46.2921 35.4392 45.4912 34.2715 45.1927 33.5032C42.7213 35.8964 40.0708 35.8964 38.7651 35.8964C35.1109 35.8964 31.3333 33.2846 31.3333 28.9111C31.3333 27.8679 31.5953 25.2392 34.0016 23.2772C35.5125 22.0294 37.564 21.4183 40.2751 21.4183C41.6437 21.4183 43.164 21.5731 44.9036 21.8887C44.5755 18.8658 43.4344 17.8642 40.4484 17.847H36.1041C33.6292 17.8294 32.8776 14.1756 32.8776 14.1756H40.4667C47.8255 14.2012 48.7729 19.5054 48.7729 24.1308V35.4475ZM60.1536 35.8964L49.9088 13.5418L50.4375 13.5288C53.2645 13.4652 54.4703 14.9428 54.8557 15.5736L60.1473 27.1403L65.2683 15.8027C65.3776 15.5622 66.4557 13.4668 69.7855 13.5288L70.3088 13.5392L60.1536 35.8964ZM99.5989 35.4475H99.2516C97.1172 35.4392 96.3151 34.2715 96.0172 33.5032C93.5417 35.8964 90.8948 35.8964 89.5833 35.8964C85.9323 35.8964 82.1536 33.2846 82.1536 28.9111C82.1536 27.8679 82.414 25.2392 84.8203 23.2772C86.3307 22.0294 88.3855 21.4183 91.0937 21.4183C92.4677 21.4183 93.9869 21.5731 95.7255 21.8887C95.3948 18.8658 94.2604 17.8642 91.2683 17.847H86.9287C84.4521 17.8294 83.6995 14.1756 83.6995 14.1756H91.2864C98.65 14.2012 99.5989 19.5054 99.5989 24.1308V35.4475Z" fill="black"/>
<path d="M78.6694 5.66269C78.599 5.77669 78.5287 5.89123 78.4522 6.00016C77.7047 7.14603 75.526 10.6423 75.526 12.2199C75.526 10.6423 73.3464 7.14603 72.6016 6.00016C72.5251 5.89123 72.4506 5.77669 72.3844 5.66269C72.3662 5.63869 72.3558 5.62309 72.3558 5.62309H72.3584C72.047 5.07456 71.8662 4.4335 71.8662 3.74963C71.8662 1.67883 73.5052 0.000162071 75.526 0.000162071C77.5459 0.000162071 79.1875 1.67883 79.1875 3.74963C79.1875 4.4335 79.0079 5.07456 78.6918 5.62309H78.6954C78.6954 5.62309 78.6823 5.63869 78.6694 5.66269ZM41.8954 47.7027C41.0651 47.0684 40.2803 46.8079 39.2266 46.8079C37.6432 46.8079 36.3792 48.0017 36.3792 49.5121C36.3792 50.3965 36.7036 51.1059 37.3568 51.5902C37.7418 51.8798 37.9506 51.9954 39.0875 52.5423C39.987 52.972 40.3088 53.3314 40.3088 53.9059C40.3088 54.7392 39.6922 55.2845 38.8047 55.2413C37.9375 55.1975 37.1344 54.7949 36.3375 54.0215L36.0703 55.7012C37.0536 56.3887 37.9662 56.6934 39.0438 56.6934C40.8418 56.6934 42.2022 55.4892 42.2022 53.8731C42.2022 52.6423 41.6979 51.9355 40.2656 51.2194C40 51.0902 39.7047 50.9329 39.3803 50.7725C38.426 50.2986 38.1323 49.9434 38.1746 49.3366C38.2162 48.7236 38.737 48.2621 39.3959 48.2621C40.0552 48.2621 40.547 48.46 41.3755 49.0762L41.8954 47.7027ZM49.6146 56.4616H51.4418L47.5522 46.8798H46.2203L42.2755 56.4616H43.9298L44.9703 53.847H48.6058L49.6146 56.4616ZM48.1422 52.6579H45.4208L46.8063 49.1517L48.1422 52.6579ZM53.8151 47.0397H52.1031V56.4616H57.5912L57.8011 54.9704H53.8151V47.0397ZM64.2422 47.0397V52.6855C64.2422 53.4902 64.1474 54.0059 63.9079 54.3678C63.5418 54.9392 62.9246 55.1975 61.9443 55.1975C61.3672 55.1975 60.8063 55.0267 60.4558 54.7517C59.9636 54.3496 59.7828 53.7923 59.7828 52.6855V47.0397H58.0694V52.6986C58.0694 53.847 58.2527 54.6543 58.6588 55.2288C59.3047 56.1725 60.4974 56.6803 62.112 56.6803C63.137 56.6803 64.1902 56.3444 64.8203 55.8314C65.6188 55.1699 65.9558 54.2507 65.9558 52.6986V47.0397H64.2422ZM67.3219 56.4069C68.15 56.4913 68.6251 56.5329 69.3412 56.5329H70.1276C70.5886 56.5329 71.4194 56.4486 71.926 56.3444C72.611 56.2064 73.1459 56.0017 73.5807 55.7012C74.7438 54.9267 75.5172 53.4319 75.5172 51.9355C75.5172 49.7142 74.4651 48.0736 72.6251 47.4163C71.8386 47.1257 70.914 46.9684 70.099 46.9684C68.9063 46.9684 68.6251 46.9824 67.3219 47.084V56.4069ZM69.0339 48.4173C69.1448 48.4043 69.2724 48.4043 69.2724 48.4043H69.5954C69.823 48.3913 70.0287 48.4043 70.2396 48.4173C70.8828 48.46 71.474 48.6204 71.9807 48.8783C73.0068 49.3939 73.6943 50.5881 73.6943 51.8329C73.6943 52.7559 73.4662 53.4902 73.0068 54.0788C72.4574 54.7689 71.5183 55.1439 70.3246 55.1439C69.5807 55.1439 69.5651 55.1439 69.0339 55.0553V48.4173ZM80.8698 48.4788H84.461V47.0397H79.1823V56.4616H84.8959L85.0927 55.0121H80.8698V52.2533H84.137V50.8611H80.8698V48.4788ZM85.9651 47.084V56.4616H87.6771V53.0423C88 53.071 88.4323 53.0918 88.5312 53.0918C89.5146 53.0918 90.1735 52.959 90.723 52.6715C91.6891 52.1803 92.3074 51.1595 92.3074 50.085C92.3074 49.0762 92 48.334 91.3542 47.7585C90.7099 47.184 89.823 46.9392 88.4194 46.9392C88.0694 46.9392 87.2266 46.9824 86.5964 47.0397C86.5964 47.0397 86.5276 47.0397 86.3855 47.0553L85.9651 47.084ZM87.6771 48.4173C88 48.4043 88.3636 48.3913 88.547 48.3913C89.8662 48.3913 90.5798 48.9944 90.5798 50.085C90.5798 51.1194 89.823 51.7246 88.5183 51.7246C88.3203 51.7246 87.9844 51.709 87.6771 51.6934V48.4173ZM98.6563 47.7027C97.8255 47.0684 97.0391 46.8079 95.986 46.8079C94.4036 46.8079 93.1355 48.0017 93.1355 49.5121C93.1355 50.3965 93.4584 51.1059 94.1198 51.5902C94.4974 51.8798 94.7126 51.9954 95.8464 52.5423C96.7464 52.972 97.0703 53.3314 97.0703 53.9059C97.0703 54.7392 96.4506 55.2845 95.5667 55.2413C94.697 55.1975 93.8974 54.7949 93.0938 54.0215L92.8307 55.7012C93.8115 56.3887 94.7255 56.6934 95.8047 56.6934C97.6016 56.6934 98.9626 55.4892 98.9626 53.8731C98.9626 52.6423 98.4574 51.9355 97.026 51.2194C96.7604 51.0902 96.4662 50.9329 96.1407 50.7725C95.1875 50.2986 94.8907 49.9434 94.935 49.3366C94.9782 48.7236 95.4974 48.2621 96.1563 48.2621C96.814 48.2621 97.3088 48.46 98.1328 49.0762L98.6563 47.7027Z" fill="black"/>
</svg>
