<svg width="40" height="40" viewBox="0 0 50 50" fill="none" xmlns="http://www.w3.org/2000/svg">
<path fill-rule="evenodd" clip-rule="evenodd" d="M22.5739 7.08336C23.475 6.53757 24.5084 6.24902 25.562 6.24902C26.6155 6.24902 27.6489 6.53757 28.55 7.08336L30.6719 8.38127C33.6489 10.2011 37.0396 10.6063 40.4458 11.0146C41.5468 11.1469 42.6489 11.2781 43.7396 11.4584C43.7396 11.4584 43.7635 13.3688 43.7385 14.2354L43.5208 21.6844C43.3333 28.0729 40.4927 34.1302 35.6198 38.5323C33.3208 40.6084 30.9427 42.4844 28.2104 44.0427C27.4052 44.4983 26.5024 44.7537 25.5779 44.7876C24.6534 44.8215 23.7343 44.6329 22.8979 44.2375C19.7427 42.7375 16.9489 40.8354 14.3979 38.5323C9.52498 34.1302 6.68435 28.0729 6.49789 21.6844L6.28123 14.2594C6.25519 13.3792 6.28123 11.4584 6.28123 11.4584C7.16664 11.3542 8.06873 11.2677 8.9781 11.1813C12.9916 10.8 17.1385 10.4063 20.5406 8.32711L22.575 7.08336H22.5739ZM22.9166 22.9167V15.625H27.0833V22.9167H34.375V27.0834H27.0833V34.375H22.9166V27.0834H15.625V22.9167H22.9166Z" fill="white"/>
</svg>
