<svg width="291" height="93" viewBox="0 0 291 93" fill="none" xmlns="http://www.w3.org/2000/svg">
<g clip-path="url(#clip0_124_117)">
<path d="M251.436 73.705C251.56 73.5446 251.436 73.4377 251.313 73.3843C245.74 75.3084 233.543 77.2325 225.927 78.1946C219.364 79.0498 213.73 79.2101 210.573 79.3705L209.148 79.4774C208.963 79.4774 208.901 79.5843 208.839 79.6912C208.777 79.7981 208.901 79.8515 208.963 79.905C209.52 80.4394 211.377 81.936 215.092 82.417C219.364 82.8981 225.618 81.9894 233.543 80.0119C240.168 78.4084 247.721 75.6291 251.436 73.705Z" fill="black"/>
<path d="M251.994 76.5378C248.464 78.6223 243.635 80.6534 237.939 82.3637C232.119 84.1275 225.866 85.5706 219.055 86.5861C218.931 86.6396 218.807 86.693 218.807 86.7999C218.807 86.8534 218.869 86.9603 218.869 87.0137C219.984 87.762 221.47 88.243 223.203 88.4034C225.37 88.6172 228.033 88.3499 231.066 87.6551C233.791 87.0137 236.329 85.9982 239.301 84.7689C242.087 83.593 244.75 82.2568 246.979 80.8672C249.269 79.4241 251.065 78.0344 252.117 76.8051C252.179 76.6447 252.117 76.5378 251.994 76.5378Z" fill="black"/>
<path d="M223.327 22.6085C224.751 23.8913 226.547 24.8534 228.776 25.4413L228.961 25.4947C229.58 25.6551 266.791 34.0999 276.636 36.3982C280.97 37.4137 284.375 38.2154 285.923 38.5896C286.109 38.5896 286.171 38.5361 286.171 38.4292C286.171 38.3758 286.109 38.2689 286.047 38.2689C279.855 36.1309 241.53 23.4102 227.104 18.6534L221.036 16.6223C220.85 16.6223 220.727 16.6223 220.665 16.6758C220.603 16.7292 220.603 16.8361 220.603 16.8896C220.665 17.3171 220.974 19.7223 222.213 21.3258C222.584 21.8602 222.956 22.2878 223.327 22.6085Z" fill="black"/>
<path d="M224.937 9.99471C225.68 10.7964 226.361 11.2775 227.723 12.0257C228.156 12.2395 228.652 12.5068 229.147 12.7206L232.552 14.2171C234.472 15.0723 263.2 26.6171 267.41 28.4344C272.364 30.5189 277.317 32.5499 279.484 33.512C279.731 33.5654 279.793 33.512 279.731 33.2982C274.407 30.412 253.851 19.2413 239.177 11.4378L228.652 5.93264L226.732 4.91712L223.141 3.04643C222.955 2.99299 222.832 2.99299 222.77 3.04643C222.646 3.09988 222.646 3.15333 222.646 3.20678C222.584 3.63437 222.584 5.98609 223.389 7.74989C223.884 8.49816 224.38 9.35333 224.937 9.99471Z" fill="black"/>
<path d="M250.817 82.0962C250.755 82.0962 250.693 82.0962 250.631 82.1496C245.864 86.2117 238.868 88.4565 236.515 89.0979C236.391 89.0979 236.267 89.2048 236.267 89.3117C236.267 89.4186 236.329 89.5255 236.453 89.579C236.824 89.7393 239.611 91.0221 244.997 88.7238C248.031 87.3876 249.579 85.2496 250.941 82.4169C251.065 82.1496 250.941 82.0962 250.817 82.0962Z" fill="black"/>
<path d="M285.056 48.1033C282.641 48.6912 273.54 50.7222 265.491 52.486C258.557 54.036 250.693 55.8533 250.693 55.8533C249.888 56.0136 250.198 56.3343 250.26 56.4412C250.446 56.7085 250.941 57.3498 251.436 58.0981C252.675 59.9154 254.408 59.6481 255.894 59.2205C256.204 59.1136 283.942 49.1188 285.18 48.424C285.366 48.3171 285.242 48.2102 285.242 48.1567C285.242 48.1033 285.118 48.1033 285.056 48.1033Z" fill="black"/>
<path d="M272.859 64.7256L272.673 64.779C269.02 67.398 263.386 71.6204 257.628 75.8963C257.071 76.2704 256.885 76.9653 256.637 77.8204C256.266 79.2635 255.399 81.0808 255.399 81.0808C255.213 81.5084 255.461 81.6687 255.956 81.2411C260.414 77.0722 270.32 67.6652 272.983 64.9394C273.045 64.8325 272.921 64.7256 272.859 64.7256Z" fill="black"/>
<path d="M290.443 41.7431C285.49 40.9414 225.494 31.7483 225.494 31.7483C225.37 31.7483 225.246 31.8017 225.185 31.8552C225.123 31.9621 225.185 32.069 225.185 32.1759C226.175 34.8483 228.528 37.5207 232.552 38.6431C233.048 38.75 233.419 38.8035 233.853 38.8569C233.853 38.8569 284.747 41.7431 290.381 42.0638C290.505 42.0638 290.629 42.0104 290.629 41.9035C290.567 41.7966 290.505 41.7431 290.443 41.7431Z" fill="black"/>
<path d="M287.904 44.6826C286.109 44.7361 282.456 44.7361 277.874 44.7361C272.611 44.7361 266.048 44.7895 259.981 44.7895C251.808 44.7895 238.806 44.8964 238.806 44.8964C238.744 44.8964 238.62 44.9499 238.558 45.0033C238.496 45.1102 238.496 45.1637 238.558 45.2171C238.744 45.6981 239.487 46.874 240.292 47.6223C241.901 49.0654 243.697 49.8671 245.554 50.0274C245.802 50.0274 245.988 50.0274 246.235 50.0274C246.483 50.0274 246.669 50.0274 246.917 49.974C247.164 49.974 285.799 45.2705 287.904 44.9499C288.028 44.9499 288.09 44.8964 288.09 44.7895C288.09 44.7895 288.028 44.6826 287.904 44.6826Z" fill="black"/>
<path d="M281.899 52.7534C279.236 54.1431 272.302 57.831 266.358 60.8776C263.015 62.6414 258.866 64.6189 256.699 65.7948C256.452 65.9552 256.266 65.9017 256.39 66.4896C256.39 66.4896 256.513 67.0241 256.575 67.7189C256.823 70.4983 258.123 70.1776 260.043 68.8948L260.29 68.7345C266.977 63.9776 279.36 54.9982 282.084 53.0207C282.146 52.8603 282.022 52.8069 281.899 52.7534Z" fill="black"/>
<path d="M170.018 21.3259C156.707 21.3259 144.2 29.7707 143.705 46.2328C143.209 61.1983 152.249 71.6741 167.542 71.6741C180.111 71.6741 184.506 64.1379 184.506 64.1379C185.249 69.2155 188.407 70.7655 194.722 70.7655V21.3259H170.018ZM183.887 50.4552C183.887 57.2965 179.368 63.8172 169.461 63.8172C160.607 63.8172 154.292 58.6862 154.725 46.3931C155.097 34.5811 161.722 29.3432 170.452 29.3432C171.133 29.3432 171.752 29.3432 172.371 29.2897H183.887V50.4552Z" fill="black"/>
<path d="M85.3188 21.3259L85.3807 55.5863C85.3807 60.6104 80.6132 63.1225 74.2979 63.1225C67.6111 63.1225 63.2771 60.6104 63.2771 55.5863L63.1532 29.9311C63.1532 22.6087 57.8286 21.3259 53.1849 21.3259V57.7242C53.1849 66.9173 62.7817 71.407 73.9264 71.407C84.7615 71.407 95.4109 66.9173 95.4109 57.7242V31.107C95.4109 23.838 92.2532 21.3259 85.3188 21.3259Z" fill="black"/>
<path d="M29.4695 43.4535L17.2723 40.5673C13.9289 39.7656 10.8332 38.4828 10.8332 34.9552C10.8332 31.2673 13.4336 29.4501 18.8821 29.4501H29.7172C34.5466 29.4501 40.2427 28.0604 40.2427 21.3259H19.7489C7.11828 21.3259 -0.0638428 26.8311 -0.0638428 34.688C-0.0638428 42.0104 5.32275 46.1259 14.9196 48.3707L25.6308 50.7759C30.0268 51.7914 31.5747 54.1966 31.5747 56.6017C31.5747 60.2897 28.8504 62.5345 22.2255 62.5879L1.7936 62.7483V70.7121H22.597C35.1657 70.7121 42.4098 64.8862 42.4098 57.1897C42.4717 49.4931 38.9425 45.6449 29.4695 43.4535Z" fill="black"/>
<path d="M129.774 21.3259C117.391 21.3259 108.846 27.5259 108.846 40.2466V70.7656H118.815V39.9259C118.815 33.3518 122.901 29.4501 130.64 29.4501H133.612C142.342 29.4501 143.766 25.5483 143.766 21.3259H129.774Z" fill="black"/>
</g>
<defs>
<clipPath id="clip0_124_117">
<rect width="291" height="93" fill="white"/>
</clipPath>
</defs>
</svg>
